<?xml version="1.0" standalone="no"?>
<!DOCTYPE svg PUBLIC "-//W3C//DTD SVG 20010904//EN"
 "http://www.w3.org/TR/2001/REC-SVG-20010904/DTD/svg10.dtd">
<svg version="1.0" xmlns="http://www.w3.org/2000/svg"
 width="950.000000pt" height="698.000000pt" viewBox="0 0 950.000000 698.000000"
 preserveAspectRatio="xMidYMid meet">
<metadata>
Created by potrace 1.16, written by Peter Selinger 2001-2019
</metadata>
<g transform="translate(0.000000,698.000000) scale(0.100000,-0.100000)"
fill="#000000" stroke="none">
<path d="M4670 6950 c-16 -17 -39 -61 -51 -98 -20 -60 -23 -87 -24 -252 0
-102 3 -219 7 -260 4 -41 9 -113 12 -160 8 -129 41 -315 54 -313 17 4 15 -12
-3 -27 -22 -19 -45 5 -45 46 0 19 -4 34 -10 34 -11 0 -12 -115 -1 -165 4 -21
16 -34 39 -45 29 -12 33 -18 28 -41 -8 -43 4 -99 23 -99 14 0 14 -2 1 -10 -13
-8 -13 -13 3 -39 18 -31 23 -66 8 -56 -12 7 -24 -12 -16 -25 5 -8 11 -7 20 0
11 9 20 -2 45 -54 17 -36 35 -66 40 -66 14 0 13 5 -15 46 -25 36 -34 81 -15
69 6 -3 17 -20 26 -36 10 -20 20 -29 30 -25 16 6 44 -15 44 -32 0 -5 7 -15 15
-22 12 -10 15 -10 15 3 0 8 6 17 13 20 9 4 9 8 0 23 -24 35 -53 93 -53 104 0
15 37 -25 45 -49 3 -12 10 -21 14 -21 9 0 8 76 -1 86 -5 4 -8 18 -8 31 0 13
-4 23 -10 23 -5 0 -10 6 -10 14 0 8 -4 16 -9 18 -5 2 -12 18 -16 37 -5 23 -4
31 4 27 6 -4 11 -12 11 -18 0 -13 37 -60 44 -56 9 5 35 -37 36 -58 0 -22 38
-79 47 -70 2 2 -5 22 -16 45 -12 22 -21 50 -21 61 0 11 -8 24 -17 27 -29 11
-34 28 -11 33 l22 6 -24 22 c-13 12 -24 31 -25 42 -2 25 12 26 20 1 3 -11 13
-22 22 -25 19 -8 32 2 17 12 -5 4 -24 28 -42 55 -25 38 -28 45 -12 37 11 -6
24 -9 29 -6 10 6 43 -38 52 -69 3 -11 13 -19 22 -19 9 1 17 -5 17 -13 0 -8 9
-26 20 -40 32 -41 23 -47 -19 -14 -21 17 -43 31 -49 31 -16 0 16 -127 40 -160
12 -16 23 -28 24 -27 2 2 -3 24 -11 49 -13 43 -12 46 5 51 22 6 30 -11 30 -63
0 -21 4 -41 9 -44 5 -3 7 -14 5 -24 -6 -21 60 -89 70 -73 4 6 -3 18 -14 28
-12 10 -27 29 -34 43 -16 30 -19 130 -5 130 6 0 8 -4 4 -9 -3 -6 1 -25 9 -43
12 -27 15 -29 15 -11 1 12 5 25 11 28 6 4 4 15 -6 30 -16 25 -11 95 8 95 6 0
8 -12 5 -28 -3 -15 -2 -34 3 -42 7 -11 11 -7 16 18 7 34 25 54 32 34 2 -6 10
-8 18 -5 10 4 14 -3 14 -25 0 -16 7 -35 15 -42 13 -11 20 -8 44 16 15 16 31
46 35 67 4 21 16 43 26 50 26 15 25 42 0 67 -12 12 -18 24 -16 29 3 4 -4 32
-15 62 -11 30 -24 68 -29 86 -7 28 -5 31 12 28 19 -4 18 -2 -4 27 -13 17 -33
33 -44 35 -10 2 -39 6 -64 9 -25 3 -49 10 -54 15 -14 13 -46 11 -46 -2 0 -6
-14 -9 -32 -8 -74 5 -211 -42 -247 -85 -8 -9 -19 -16 -26 -16 -6 0 -17 -11
-23 -24 -9 -20 -8 -23 6 -22 13 1 16 -6 14 -29 -2 -16 -8 -35 -14 -42 -7 -9
-3 -23 11 -47 21 -34 21 -34 1 -29 -11 3 -20 11 -20 18 0 6 -9 20 -20 30 -11
10 -17 21 -15 26 3 4 1 11 -5 14 -6 4 -8 15 -5 25 3 10 1 21 -5 25 -5 3 -10
22 -10 40 0 26 4 33 14 29 8 -3 12 -12 9 -20 -11 -30 21 -12 71 40 29 30 69
59 89 65 36 12 54 27 44 37 -2 3 -28 -4 -57 -15 -29 -11 -57 -18 -61 -15 -5 3
-20 -3 -34 -12 -14 -9 -28 -14 -31 -12 -10 11 72 81 135 115 36 19 68 39 69
44 2 5 8 6 14 3 13 -8 88 26 89 40 1 6 1 15 0 19 -1 5 7 6 18 2 22 -7 38 10
20 21 -7 4 7 15 36 26 35 14 51 16 59 8 8 -8 7 -13 -3 -19 -10 -7 -11 -10 0
-16 9 -6 6 -11 -11 -17 -30 -11 -18 -22 15 -14 19 5 25 11 21 23 -5 13 0 14
31 8 21 -4 41 -12 45 -18 4 -6 10 -8 14 -5 3 4 -5 18 -19 32 -18 18 -21 26
-12 26 35 0 3 47 -33 48 -16 0 -47 8 -68 16 l-39 16 27 -24 c18 -16 24 -27 17
-32 -6 -3 -14 -1 -18 5 -4 7 -21 16 -37 20 -16 5 -28 14 -26 21 2 10 -12 12
-63 8 -67 -6 -82 1 -42 20 14 7 17 11 6 11 -8 1 -30 -10 -49 -24 -19 -14 -44
-25 -57 -25 -30 0 -91 -34 -126 -71 -30 -32 -54 -38 -54 -14 0 8 6 15 13 15 7
0 18 9 24 20 14 27 75 57 133 65 26 4 47 12 47 17 0 5 -9 6 -20 3 -11 -3 -20
-2 -20 2 0 15 23 33 41 33 10 0 19 6 22 13 3 9 7 9 20 -2 14 -11 20 -11 33 0
14 12 10 15 -32 27 -92 26 -135 30 -141 16 -8 -22 -22 -16 -16 6 3 13 14 20
28 20 12 0 34 9 48 20 14 11 28 20 31 20 13 0 5 -23 -11 -37 -16 -13 -16 -14
10 -8 15 3 47 8 73 12 32 4 44 10 40 19 -4 10 4 14 30 14 21 0 33 -4 29 -10
-3 -5 -12 -10 -19 -10 -7 0 -21 -7 -32 -16 -18 -14 -17 -15 16 -11 19 3 57 0
83 -5 35 -7 52 -7 60 1 18 18 37 13 37 -9 0 -11 8 -28 18 -38 17 -18 22 -34
24 -79 0 -13 7 -28 14 -34 8 -6 14 -20 14 -30 0 -11 4 -19 9 -19 6 0 11 -14
13 -32 3 -28 8 -33 41 -41 20 -5 37 -13 37 -18 0 -11 -3 -11 -34 1 -24 9 -47
-2 -27 -14 4 -3 11 -19 15 -36 4 -22 11 -30 22 -28 24 4 29 -18 5 -25 -19 -5
-20 -7 -5 -36 9 -18 28 -35 49 -42 19 -7 36 -20 38 -28 3 -9 5 -3 6 12 0 15
-7 40 -16 55 -17 27 -17 27 3 10 11 -10 24 -18 27 -18 13 0 7 27 -8 40 -19 16
-19 26 0 34 11 4 19 -3 25 -19 13 -34 24 -32 15 3 -4 15 -7 36 -7 47 1 16 -1
17 -8 5 -11 -17 -15 -9 -25 55 -6 36 -38 85 -56 85 -11 0 1 -38 17 -51 16 -13
18 -29 4 -29 -5 0 -10 5 -10 10 0 15 -39 50 -45 41 -8 -14 -45 -1 -45 15 0 8
-7 14 -15 14 -8 0 -15 4 -15 9 0 5 -3 17 -6 26 -6 16 -5 16 24 1 19 -10 29
-21 26 -30 -6 -16 11 -30 26 -21 15 9 -22 74 -50 88 -34 18 -49 45 -30 57 9 6
11 13 5 18 -13 9 -44 61 -52 85 -3 9 -10 17 -15 17 -5 0 -7 9 -3 19 4 14 -9
34 -50 77 -30 32 -55 62 -55 67 0 5 -7 7 -15 3 -10 -4 -15 1 -15 14 0 22 -87
140 -103 140 -5 0 -7 -7 -3 -15 7 -18 2 -18 -48 -1 -40 14 -71 56 -41 56 9 0
12 -6 9 -15 -4 -10 0 -15 15 -15 12 0 21 5 21 11 0 5 -5 7 -12 3 -8 -5 -9 -2
-5 9 4 12 -2 21 -23 32 -33 17 -54 20 -45 5 11 -18 -22 -11 -49 11 -17 14 -36
19 -52 16 -20 -3 -27 1 -34 19 -13 32 -36 30 -70 -6z"/>
<path d="M8530 6190 c-6 -11 -19 -20 -29 -20 -11 0 -22 -7 -25 -16 -9 -23 -7
-36 3 -30 5 3 15 -1 22 -10 11 -14 10 -15 -6 -12 -15 2 -19 -4 -21 -30 -2 -31
17 -62 37 -62 5 0 9 -5 9 -10 0 -6 -8 -10 -17 -8 -14 2 -18 -4 -19 -32 0 -19
5 -45 11 -56 9 -19 13 -20 28 -9 13 9 16 20 11 39 -5 20 -2 26 10 26 9 0 16 5
16 10 0 6 -7 10 -15 10 -19 0 -19 9 2 32 15 17 15 19 -2 38 -10 11 -15 21 -12
21 4 1 13 2 20 3 7 1 12 18 12 47 0 34 -3 45 -12 42 -16 -6 -17 9 -2 24 7 7 7
13 0 17 -5 4 -15 -3 -21 -14z"/>
<path d="M7715 5800 c-4 -7 -16 -9 -28 -6 -24 6 -52 -7 -88 -41 -14 -13 -30
-23 -35 -21 -16 4 -55 -23 -48 -34 4 -7 3 -8 -5 -4 -6 4 -14 0 -18 -10 -4 -10
-2 -19 4 -21 7 -3 7 -18 -3 -48 -12 -42 -12 -45 6 -45 13 0 18 5 14 15 -4 8
-1 15 6 15 6 0 14 -9 17 -20 5 -19 7 -20 29 -5 17 11 25 12 30 3 4 -7 2 -14
-5 -16 -9 -3 -9 -7 0 -18 6 -8 7 -14 2 -14 -10 0 -63 -76 -63 -91 0 -5 5 -9
10 -9 6 0 10 -7 10 -15 0 -8 -4 -15 -10 -15 -5 0 -10 5 -10 12 0 8 -6 7 -16
-4 -17 -17 -27 -85 -13 -94 5 -2 6 -11 2 -19 -3 -8 0 -15 6 -15 6 0 11 9 11
19 0 11 5 23 10 26 6 3 10 19 10 34 0 27 38 71 60 71 6 0 15 11 20 25 5 14 16
25 25 25 8 0 15 6 15 14 0 8 5 18 12 22 8 5 9 -3 5 -29 -4 -24 -2 -37 5 -37 6
0 3 -9 -7 -20 -9 -10 -20 -18 -24 -17 -3 1 -25 -7 -48 -18 -31 -15 -43 -26
-43 -42 0 -13 5 -23 11 -23 6 0 9 7 6 15 -4 8 -2 17 3 20 6 4 10 -2 10 -12 1
-17 1 -17 15 0 13 18 14 17 17 -5 l3 -23 21 21 c12 12 24 28 26 35 4 11 8 10
22 -4 18 -17 18 -19 1 -37 -23 -25 -15 -33 18 -21 17 7 25 16 21 25 -3 8 -1
17 5 21 6 3 11 -1 11 -9 0 -21 19 -20 42 1 21 19 25 17 30 -17 2 -14 -2 -25
-9 -25 -6 0 -15 -3 -19 -7 -4 -5 -2 -8 4 -8 7 0 12 -11 12 -25 0 -29 17 -33
36 -8 7 10 16 15 20 11 4 -4 1 -14 -6 -23 -10 -12 -10 -15 2 -15 8 0 19 5 25
11 7 7 13 7 17 1 6 -10 -61 -86 -84 -94 -8 -3 -12 -9 -7 -13 4 -5 13 -3 19 3
7 7 25 12 40 12 15 0 28 5 28 10 0 18 40 50 69 56 44 9 48 50 9 85 -18 15 -28
31 -24 38 5 7 0 11 -13 11 -11 0 -23 -4 -26 -10 -9 -14 -44 -12 -59 3 -11 11
-10 17 4 35 10 12 25 22 34 22 24 0 19 15 -9 30 -14 7 -25 19 -25 27 0 7 -7
13 -15 13 -8 0 -15 9 -15 20 0 11 -5 20 -11 20 -6 0 -9 -7 -5 -15 3 -9 0 -15
-8 -15 -25 0 -6 38 22 45 25 7 26 8 7 16 -11 4 -39 5 -62 2 -50 -6 -58 10 -12
23 30 9 38 31 9 27 -8 -1 -23 3 -33 9 -14 7 -22 7 -27 -1 -4 -8 -14 -9 -31 -2
-18 7 -19 10 -6 10 11 1 17 7 15 17 -2 10 3 19 10 21 6 3 12 -2 12 -11 0 -14
3 -14 20 -4 18 11 18 14 5 24 -19 14 -20 35 -1 28 11 -4 13 0 9 15 -6 23 -23
27 -41 9 -9 -9 -15 -9 -24 0 -9 9 -8 12 5 12 10 0 17 6 16 13 -4 29 2 37 27
37 15 0 24 5 22 12 -6 17 -25 21 -33 8z"/>
<path d="M5584 5378 c3 -18 8 -41 11 -50 4 -10 3 -18 -3 -18 -15 0 -10 -69 6
-75 8 -3 18 -3 23 1 5 3 9 -4 9 -16 0 -12 -4 -18 -10 -15 -5 3 -10 -2 -10 -12
0 -24 -19 -43 -36 -36 -8 3 -14 0 -14 -6 0 -6 -7 -11 -15 -11 -11 0 -12 -5 -5
-25 5 -14 7 -25 5 -25 -3 0 1 -11 10 -23 10 -15 13 -35 9 -54 -4 -21 -1 -35
11 -46 33 -34 50 -10 18 25 -13 15 -15 23 -6 36 6 9 18 16 27 16 20 -2 22 32
2 39 -8 3 -17 -1 -20 -10 -9 -23 -19 -8 -11 16 3 12 13 21 21 21 11 0 13 7 8
27 -7 25 -6 26 8 13 8 -9 17 -22 19 -29 3 -8 5 10 5 39 0 33 5 55 12 58 19 6
14 19 -19 53 -24 24 -29 37 -24 56 6 25 -13 83 -27 83 -5 0 -6 -15 -4 -32z"/>
<path d="M8040 5260 c-6 -4 -11 -10 -11 -14 3 -20 -1 -26 -14 -26 -8 0 -29 -9
-47 -21 l-33 -20 33 6 c25 5 32 3 32 -9 0 -19 5 -20 31 -6 23 13 25 1 4 -26
-20 -26 -19 -29 10 -42 30 -14 32 -33 5 -57 -24 -21 -26 -37 -5 -29 29 11 4
-26 -29 -43 -19 -10 -26 -18 -18 -21 8 -2 19 1 25 7 7 7 14 7 23 0 9 -7 29 0
72 27 55 34 60 42 77 96 15 50 20 58 42 58 18 0 24 5 21 18 -2 13 -16 18 -63
22 -53 4 -60 8 -63 28 -4 25 -72 64 -92 52z"/>
<path d="M6720 5100 c-13 -19 -20 -39 -17 -51 3 -12 3 -27 0 -35 -4 -12 -7
-12 -18 2 -13 19 -35 11 -35 -12 0 -8 -7 -26 -16 -39 -11 -17 -14 -33 -9 -52
5 -16 7 -40 6 -55 -3 -31 15 -46 22 -18 3 11 16 24 30 29 14 6 28 19 32 31 3
11 10 18 15 15 4 -3 6 4 3 15 -3 12 2 29 13 42 19 21 19 21 -3 10 -12 -7 -23
-17 -25 -23 -2 -7 -10 -10 -17 -8 -10 4 -2 17 23 44 20 22 34 46 31 53 -2 6 0
12 5 12 6 0 10 9 10 20 0 14 -5 18 -17 13 -13 -5 -15 -2 -11 15 8 29 3 28 -22
-8z"/>
<path d="M5060 4969 c0 -5 -13 -9 -29 -9 -31 0 -106 -28 -81 -31 8 -1 19 -1
24 0 5 1 23 -1 40 -5 l31 -7 -35 -8 c-19 -4 -51 -5 -71 -3 -21 3 -40 1 -44 -5
-8 -14 -48 -14 -62 0 -13 13 -54 8 -54 -6 -1 -20 -32 -45 -65 -51 -49 -9 -31
-24 21 -18 36 4 45 2 45 -11 0 -10 10 -15 30 -15 17 0 42 -7 55 -16 17 -11 25
-13 25 -4 0 22 25 3 27 -21 1 -13 4 -37 7 -54 3 -16 8 -52 11 -80 4 -27 14
-58 22 -67 8 -9 12 -22 8 -27 -3 -6 1 -11 10 -11 12 0 15 6 10 23 -4 12 -7 24
-7 27 -1 30 5 29 23 -5 32 -60 95 -136 137 -164 20 -13 39 -28 42 -31 16 -22
186 -39 248 -25 22 5 32 4 32 -4 0 -7 5 -9 10 -6 7 4 9 -2 4 -19 -4 -18 -2
-28 9 -32 19 -7 75 32 83 59 4 13 9 16 17 8 7 -7 7 -14 -1 -24 -9 -10 -9 -16
0 -25 9 -9 9 -15 0 -24 -18 -18 -14 -27 8 -21 12 3 20 12 18 22 -1 9 1 22 5
29 5 7 3 12 -3 12 -6 0 -10 16 -10 38 1 20 -1 86 -5 147 -5 84 -11 116 -26
136 -10 15 -19 32 -19 37 0 6 -10 18 -21 26 -14 9 -19 21 -15 31 3 9 2 13 -3
10 -5 -3 -27 11 -48 31 -35 33 -89 64 -122 70 -7 1 -28 16 -45 31 -44 41 -72
61 -62 46 10 -18 -22 -17 -40 1 -10 10 -10 16 -2 18 26 9 -5 30 -36 24 -17 -3
-46 -2 -64 3 -20 6 -32 6 -32 0z m98 -258 c42 -36 18 -134 -37 -146 -33 -7
-40 -19 -16 -29 8 -3 15 -13 15 -23 0 -11 13 -24 31 -32 18 -8 34 -22 36 -32
6 -20 45 -33 74 -24 25 8 24 41 -1 55 -12 7 -20 21 -20 38 l0 26 16 -22 16
-23 38 41 39 42 25 -19 c14 -10 26 -26 26 -35 0 -21 4 -22 31 -8 23 13 26 -5
5 -35 -8 -13 -10 -27 -5 -40 6 -16 8 -17 8 -3 1 17 21 37 21 21 0 -18 -27 -46
-46 -48 -10 -1 -31 -8 -46 -15 -22 -10 -30 -11 -43 0 -12 10 -15 10 -15 -3 0
-8 6 -18 13 -20 6 -3 -7 -6 -29 -6 -28 -1 -50 6 -68 20 -14 11 -26 18 -26 14
0 -11 -65 28 -98 59 -50 46 -74 99 -70 154 3 52 20 60 28 13 5 -29 5 -29 28
-11 27 22 28 30 2 30 -11 0 -20 2 -20 5 0 14 31 64 42 68 20 8 21 8 46 -12z"/>
<path d="M1092 4723 c-25 -15 -42 -32 -42 -43 0 -20 -6 -23 -94 -40 -58 -12
-58 -12 -52 -42 5 -24 0 -39 -20 -66 l-27 -34 27 -53 c15 -29 34 -56 42 -59
10 -4 14 -16 13 -34 -2 -18 4 -35 18 -49 11 -11 23 -27 25 -34 4 -11 16 -9 58
11 30 14 61 25 69 25 24 0 43 51 49 127 5 68 13 82 30 52 10 -18 4 -112 -10
-138 -16 -30 5 -40 42 -21 42 22 73 16 80 -15 5 -21 14 -26 62 -35 116 -21
132 -89 29 -124 -44 -14 -123 -14 -156 1 -14 6 -28 9 -31 5 -3 -3 6 -31 20
-63 14 -31 26 -61 26 -67 0 -6 -14 -32 -31 -58 -22 -34 -47 -57 -86 -78 -31
-17 -59 -28 -63 -26 -12 7 -28 57 -35 107 -5 36 -13 52 -33 66 -38 27 -72 34
-79 16 -6 -17 -39 -19 -49 -2 -20 31 67 44 105 14 18 -14 41 18 41 60 0 30 -2
33 -32 32 -18 0 -52 6 -76 13 -37 12 -45 11 -53 -1 -9 -13 -10 -13 -6 1 8 24
-12 39 -50 39 -18 0 -33 4 -33 9 0 13 -69 21 -96 11 -27 -11 -44 -42 -26 -48
20 -6 13 -29 -10 -35 -26 -7 -44 5 -52 37 -5 20 -12 23 -38 21 -28 -2 -34 -7
-36 -30 -6 -47 6 -70 47 -93 32 -18 51 -39 51 -57 0 -1 -9 -5 -20 -8 -33 -9
-23 -33 18 -43 41 -10 52 -36 32 -73 -14 -28 -70 -28 -126 0 -25 12 -84 25
-139 32 -76 8 -98 15 -106 29 -9 16 -17 18 -55 12 -54 -8 -94 14 -94 50 0 18
8 27 33 36 73 27 86 29 98 14 16 -20 29 -17 29 6 0 11 -4 20 -10 20 -5 0 -10
9 -10 20 0 11 -4 20 -10 20 -5 0 -10 9 -10 20 0 16 -7 20 -37 20 -24 0 -33 -3
-25 -8 7 -5 15 -25 19 -45 5 -35 4 -37 -21 -37 -14 0 -26 -4 -26 -9 0 -5 -11
-8 -25 -5 l-25 4 0 -119 0 -119 34 -6 c51 -10 78 1 105 39 26 39 27 39 102 25
111 -21 159 -39 159 -60 0 -16 7 -20 31 -20 27 0 30 -2 19 -15 -16 -20 -37
-19 -48 1 -7 13 -13 14 -29 5 -25 -13 -40 -76 -22 -97 6 -7 9 -20 6 -27 -4
-11 -42 -14 -181 -13 l-176 1 -1 -95 c-5 -618 -2 -2453 5 -2457 4 -3 11 -1 15
5 10 17 50 10 57 -10 3 -11 -6 -29 -26 -50 -25 -28 -32 -31 -40 -18 -7 10 -10
-34 -10 -135 -1 -82 -1 -202 -1 -265 -1 -63 -1 -148 0 -187 l1 -73 27 5 c98
16 163 34 186 53 12 11 56 17 150 23 72 4 135 5 139 2 11 -6 238 -5 267 1 13
3 54 8 91 12 l68 6 -4 -30 c-3 -26 1 -30 29 -39 26 -7 32 -14 29 -34 -1 -17 0
-20 7 -10 11 16 31 6 31 -16 0 -12 3 -13 15 -3 17 14 35 5 35 -16 0 -18 24
-44 39 -44 6 0 10 -6 8 -12 -1 -7 8 -14 21 -16 12 -2 22 -10 22 -18 0 -8 9
-14 20 -14 11 0 20 -7 20 -15 0 -8 6 -15 13 -15 8 0 8 -3 1 -8 -19 -13 -25
-42 -9 -42 8 0 15 -5 15 -11 0 -6 -7 -9 -15 -5 -9 3 -15 0 -15 -9 0 -8 -5 -15
-11 -15 -6 0 -9 6 -6 13 3 8 2 19 -2 26 -5 7 -12 3 -21 -14 -8 -15 -21 -25
-34 -24 -17 1 -18 2 -3 6 9 2 17 11 17 18 0 16 -25 10 -50 -11 -11 -9 -34 -12
-73 -9 -38 3 -56 2 -52 -5 3 -5 -1 -10 -10 -10 -9 0 -13 4 -10 10 3 5 -2 11
-12 11 -65 5 -73 4 -73 -8 0 -7 -5 -13 -11 -13 -6 0 -9 7 -5 15 3 9 0 15 -9
15 -8 0 -15 -5 -15 -11 0 -19 -120 -3 -135 18 -11 14 -13 13 -19 -12 -6 -22
-9 -26 -16 -15 -11 18 -70 22 -70 6 0 -15 -55 -12 -74 3 -11 9 -15 9 -19 -1
-4 -10 -10 -8 -21 6 -9 11 -16 14 -16 8 0 -18 -18 -14 -40 8 -25 25 -35 25
-58 2 -13 -13 -25 -16 -46 -11 -19 6 -29 4 -33 -7 -7 -19 -23 -18 -23 2 0 10
-6 14 -15 11 -8 -4 -17 -2 -19 2 -3 5 -17 9 -31 9 -18 0 -25 -5 -21 -14 3 -8
1 -14 -4 -14 -6 0 -10 7 -10 15 0 9 -9 15 -22 14 -13 0 -17 -3 -10 -6 16 -6
15 -23 -2 -23 -7 0 -20 14 -28 31 -12 25 -17 27 -22 14 -4 -12 -13 -15 -31
-11 l-25 6 0 -85 0 -85 1530 0 c1205 0 1530 3 1530 13 0 6 11 12 25 12 14 0
25 -6 25 -12 0 -7 6 -13 14 -13 8 0 17 6 20 13 5 9 7 9 12 0 10 -23 34 -14 34
12 0 29 0 29 36 10 26 -13 30 -13 41 2 14 19 63 27 63 11 0 -6 2 -9 5 -6 8 8
-6 58 -16 58 -5 0 -6 -7 -3 -15 7 -17 -21 -21 -31 -5 -3 5 -1 10 4 10 6 0 11
4 11 10 0 16 -71 24 -81 9 -4 -7 -11 -11 -14 -7 -4 4 5 14 19 23 26 17 26 35
0 35 -8 0 -14 -7 -14 -15 0 -13 -33 -21 -64 -16 -5 1 -6 -5 -3 -12 4 -11 -1
-14 -18 -13 -13 0 -21 5 -18 10 4 5 -5 6 -20 2 -16 -4 -27 -2 -29 6 -3 9 -10
8 -22 -5 -15 -14 -21 -15 -33 -5 -8 6 -32 11 -52 10 -21 -2 -51 2 -66 8 -22 8
-30 8 -37 -2 -6 -10 -11 -9 -19 5 -12 21 -44 23 -35 2 3 -8 1 -15 -3 -15 -5 0
-11 5 -13 12 -3 7 -9 8 -19 3 -8 -5 -34 -9 -59 -7 -25 1 -70 -2 -100 -7 -36
-6 -59 -5 -67 1 -9 7 -13 7 -13 -2 0 -8 -7 -10 -17 -5 -33 13 -88 11 -110 -3
-12 -7 -27 -11 -32 -8 -5 4 -12 2 -15 -3 -3 -5 -21 -12 -40 -15 -19 -4 -36
-11 -38 -16 -2 -6 -24 -12 -49 -15 -46 -4 -46 -4 -100 57 -63 71 -66 77 -79
166 -5 37 -14 100 -21 141 -9 58 -8 83 2 115 19 61 28 69 71 63 23 -3 38 -1
38 6 0 5 8 3 18 -7 18 -15 20 -15 37 4 16 18 16 20 2 20 -21 0 -21 5 0 29 16
19 17 19 70 -10 42 -23 53 -26 53 -14 0 35 -42 84 -72 85 -18 0 -23 15 -19 58
1 15 -4 22 -15 22 -12 0 -15 -7 -12 -29 4 -25 -15 -51 -37 -51 -12 0 -3 28 11
34 20 8 15 51 -6 51 -17 0 -35 48 -20 53 21 7 9 30 -17 35 -36 7 -36 6 -19
-28 19 -36 12 -50 -58 -105 -59 -47 -99 -111 -99 -159 -1 -14 5 -63 12 -109 7
-50 9 -111 5 -153 -6 -65 -5 -70 12 -67 13 2 20 -6 25 -32 4 -19 4 -39 -2 -45
-6 -5 -9 -5 -9 3 0 16 -30 16 -30 0 -1 -7 -12 1 -25 17 -16 20 -25 25 -25 15
0 -9 5 -21 11 -27 7 -7 9 -19 5 -28 -5 -13 -13 -11 -51 17 -24 18 -47 41 -51
52 -4 14 -8 15 -14 6 -4 -7 -13 -9 -19 -6 -6 4 -11 0 -11 -8 0 -9 -4 -16 -10
-16 -5 0 -10 -6 -10 -14 0 -8 -7 -22 -16 -31 -15 -14 -17 -14 -31 2 -11 14
-15 15 -20 4 -3 -7 -13 -21 -22 -30 -17 -17 -16 -47 1 -69 22 -26 -31 -12 -63
17 -26 24 -30 34 -25 57 6 23 5 26 -7 16 -12 -10 -15 -8 -19 13 -3 13 1 34 10
46 11 16 12 23 2 32 -10 9 -14 9 -17 0 -8 -22 -25 -14 -18 7 5 15 2 20 -13 20
-16 0 -19 7 -19 38 0 21 -4 48 -8 61 -5 15 -4 21 3 17 6 -3 18 4 26 16 21 30
20 41 -4 33 -16 -5 -20 -2 -20 19 0 14 4 28 10 31 5 3 10 16 10 29 0 12 10 33
22 45 22 25 39 121 21 121 -15 0 -63 -47 -63 -61 0 -7 -3 -10 -6 -7 -8 9 25
68 38 68 6 0 16 7 22 15 6 8 22 16 36 18 19 3 26 12 31 37 4 19 18 42 31 52
30 23 41 23 28 -2 -6 -11 -16 -20 -23 -20 -7 0 -18 -21 -25 -47 -7 -27 -19
-69 -27 -94 -8 -26 -15 -60 -15 -77 0 -17 -7 -37 -15 -46 -17 -16 -21 -86 -5
-86 6 0 10 5 10 10 0 6 7 10 15 10 16 0 21 26 6 32 -5 2 -3 16 4 33 l13 30 11
-28 c7 -18 8 -34 2 -46 -6 -10 -9 -41 -9 -70 1 -28 -4 -57 -10 -63 -16 -16
-15 -28 2 -28 15 0 26 42 26 96 0 18 4 35 9 39 16 10 9 87 -11 123 -19 35 -18
62 2 62 6 0 8 -5 5 -11 -4 -5 0 -18 8 -27 8 -9 18 -35 23 -57 7 -35 8 -37 12
-13 2 19 8 25 18 21 10 -3 14 2 13 18 0 26 -17 72 -18 52 -1 -22 -27 -14 -41
12 -11 20 -10 29 3 57 18 35 20 32 17 -21 -1 -22 2 -31 9 -27 6 4 11 22 12 39
l1 32 12 -29 c11 -23 14 -25 19 -11 4 9 7 35 7 58 l-1 42 -20 -24 c-25 -30
-29 -26 -20 23 7 42 31 63 31 26 0 -11 6 -20 13 -19 29 4 37 -3 37 -30 0 -17
4 -32 9 -36 15 -9 23 32 12 54 -8 14 -8 27 0 45 14 30 29 25 29 -10 0 -14 4
-22 10 -19 10 6 13 -4 11 -40 0 -14 3 -12 10 8 9 23 8 30 -6 41 -25 18 -12 66
31 113 38 43 43 57 14 48 -20 -6 -28 9 -10 20 15 9 12 25 -5 25 -18 0 -39 -36
-25 -45 13 -8 12 -16 -5 -39 -19 -26 -30 -14 -13 13 11 18 11 23 -2 31 -10 6
-11 10 -2 10 6 0 12 5 12 10 0 6 -7 10 -15 10 -8 0 -15 5 -15 10 0 6 5 10 10
10 16 0 12 27 -5 33 -20 8 -27 -7 -19 -40 6 -26 5 -27 -8 -9 -18 23 -41 12
-33 -15 8 -23 -19 -37 -39 -20 -16 14 -46 4 -46 -15 0 -8 -4 -14 -9 -14 -5 0
-8 8 -7 17 2 26 -30 27 -55 2 -18 -18 -25 -20 -41 -10 -20 13 -42 3 -61 -26
-4 -7 -15 -13 -23 -13 -13 0 -13 3 0 29 16 30 34 41 67 41 21 0 23 8 10 29 -6
9 -11 10 -15 2 -4 -6 -18 -11 -32 -11 -14 0 -27 -7 -31 -17 -9 -24 -97 -113
-112 -113 -7 0 -3 10 9 22 25 27 18 36 -13 15 -22 -14 -23 -14 -22 7 0 12 8
30 18 40 9 10 17 18 17 19 0 2 -19 1 -41 -1 -29 -3 -40 -1 -35 7 4 6 1 11 -8
11 -8 0 -17 -4 -20 -9 -3 -5 -20 -14 -37 -20 -30 -10 -30 -10 -25 20 2 16 9
36 16 44 8 10 8 14 -1 17 -16 5 -4 39 31 83 17 21 30 44 30 52 0 9 11 28 25
45 14 16 25 35 25 43 0 7 7 16 16 19 9 3 14 12 11 20 -4 9 3 16 16 20 21 5 21
5 -5 33 -41 44 -76 136 -53 139 6 0 18 4 27 8 9 4 23 4 30 0 7 -5 28 -9 45
-11 28 -2 35 3 49 32 19 42 34 37 34 -11 0 -32 12 -45 25 -24 3 5 11 7 18 4 8
-3 26 7 41 21 18 17 34 24 47 20 13 -4 21 -1 25 10 5 11 14 15 30 11 46 -12
33 12 -17 30 -27 10 -54 23 -59 29 -14 17 17 55 46 55 13 0 24 5 24 10 0 6 7
10 15 10 8 0 24 14 34 30 41 68 155 114 228 92 40 -12 41 -5 7 45 -21 31 -25
46 -21 82 6 51 37 97 63 93 11 -1 35 -5 54 -7 19 -2 47 -7 63 -11 17 -4 27 -2
27 5 0 20 27 12 44 -14 20 -31 21 -114 1 -142 -15 -21 -14 -36 1 -94 3 -12 -4
-19 -23 -23 -15 -4 -35 -9 -44 -12 -9 -2 -24 3 -33 12 -15 15 -18 15 -42 -1
l-26 -17 20 -21 c18 -17 23 -18 37 -7 19 15 34 5 17 -12 -10 -10 2 -16 50 -30
92 -25 102 -24 117 17 15 42 78 110 109 118 30 7 28 -11 -3 -25 -25 -11 -82
-95 -71 -105 3 -3 63 -7 133 -8 87 -1 149 -7 195 -20 37 -9 74 -15 82 -12 20
8 21 41 1 61 -8 8 -15 19 -15 25 0 6 -7 11 -15 11 -9 0 -21 11 -27 25 -6 14
-15 25 -20 25 -4 0 -8 5 -8 10 0 6 16 10 36 10 41 0 38 15 -6 23 -17 4 -30 13
-30 21 0 8 -6 16 -12 18 -9 3 -8 9 5 22 9 10 17 22 17 27 0 5 15 9 33 9 33 0
34 1 35 45 0 42 -2 45 -34 55 -36 12 -43 24 -21 37 8 4 16 16 20 25 6 16 11
15 60 -10 30 -15 53 -30 50 -34 -2 -5 7 -8 21 -8 14 0 26 -4 26 -10 0 -5 -13
-10 -30 -10 -34 0 -35 -2 -16 -33 7 -12 17 -34 20 -50 5 -22 2 -29 -16 -36
-13 -5 -39 -6 -58 -3 -38 5 -37 -7 2 -14 82 -14 89 -17 83 -31 -3 -9 -1 -21 5
-28 8 -10 4 -14 -15 -19 -14 -4 -25 -12 -25 -19 0 -21 27 -89 37 -96 6 -3 16
-17 23 -30 10 -19 14 -21 21 -10 8 11 12 10 25 -6 11 -15 17 -17 23 -7 4 7 15
10 24 6 13 -5 17 0 17 19 0 24 3 25 36 20 36 -6 36 -6 23 18 -18 31 -29 39
-59 39 -14 1 -38 7 -55 15 -29 15 -29 15 25 9 31 -2 63 -2 73 1 15 6 15 9 1
30 -15 23 -15 24 23 31 21 4 46 11 56 16 22 11 22 44 0 53 -15 5 -11 10 20 24
42 19 40 25 -22 55 -44 21 -61 20 -61 -3 0 -17 -3 -18 -62 -4 -72 17 -91 29
-65 44 9 6 17 17 17 25 0 21 27 29 47 13 14 -12 15 -11 9 9 -8 23 -7 23 22 8
36 -18 66 -11 56 13 -16 40 -15 49 5 56 12 3 19 11 15 16 -3 6 0 18 8 27 11
15 11 16 -3 4 -14 -11 -21 -7 -49 24 -28 32 -30 38 -16 46 9 5 16 16 16 23 0
16 26 21 32 6 2 -4 21 -11 43 -15 l40 -8 -22 21 c-12 12 -29 21 -38 21 -9 0
-13 5 -10 11 4 6 19 7 36 4 18 -4 29 -3 29 4 0 11 -13 15 -39 12 -7 -2 -20 1
-30 5 -11 6 -1 10 32 13 64 8 56 27 -11 24 -45 -2 -53 1 -50 15 3 13 12 16 46
14 42 -4 61 14 22 20 -35 5 -22 23 17 23 54 0 50 19 -9 50 -29 15 -57 31 -61
35 -10 9 45 50 67 50 11 0 16 9 16 30 0 28 3 30 50 36 48 6 50 7 34 25 -9 10
-25 21 -35 24 -28 9 -23 22 10 28 16 4 38 15 48 25 13 14 39 21 98 27 133 12
153 8 208 -43 24 -23 31 -25 47 -14 11 7 25 12 32 12 25 0 98 -35 98 -47 0 -7
10 -18 23 -24 12 -7 26 -18 30 -25 5 -8 25 -14 47 -14 22 0 63 -9 92 -19 62
-22 198 -28 209 -9 6 9 13 8 27 -5 10 -9 24 -17 30 -17 7 0 12 -4 12 -9 0 -6
-20 -13 -45 -17 -63 -9 -49 -17 32 -18 43 -1 68 -5 70 -13 3 -9 -4 -11 -26 -7
-36 8 -88 -3 -75 -16 5 -4 29 -10 54 -13 25 -3 77 -11 117 -18 57 -10 77 -10
102 1 31 13 33 32 3 29 -38 -3 -72 2 -72 11 0 6 16 8 43 4 53 -9 92 -23 83
-31 -3 -3 -1 -12 5 -20 9 -10 3 -13 -35 -13 -25 0 -46 -4 -46 -9 0 -15 26 -31
51 -30 13 1 81 -2 151 -5 87 -4 129 -3 133 5 12 18 -10 32 -32 20 -14 -7 -23
-7 -30 0 -6 6 -43 11 -83 11 -40 0 -68 3 -64 8 14 13 156 18 184 7 14 -6 44
-9 68 -9 42 1 55 -10 28 -25 -8 -4 -15 -12 -15 -18 -2 -22 -55 -28 -265 -34
-48 -1 -56 -3 -47 -15 7 -8 54 -18 124 -26 61 -7 135 -21 162 -31 65 -24 190
-21 230 5 15 10 34 15 43 10 13 -5 10 -8 -14 -15 -17 -5 -36 -15 -43 -22 -8
-11 -5 -14 19 -14 17 0 30 3 30 7 0 12 74 20 80 10 4 -6 31 -11 61 -13 44 -2
53 -5 43 -14 -7 -7 -19 -10 -27 -7 -17 6 -57 -12 -57 -25 0 -5 10 -9 23 -8 12
0 49 -3 82 -7 51 -7 63 -5 75 9 12 14 12 18 -1 25 -10 7 -11 14 -3 27 6 9 16
18 22 19 7 1 8 0 2 -3 -18 -9 -10 -25 10 -20 15 4 20 0 20 -15 0 -12 4 -16 11
-12 7 4 10 1 7 -7 -2 -8 -16 -15 -30 -17 -15 -2 -28 -11 -31 -21 -5 -21 29
-56 38 -41 4 6 1 10 -4 10 -6 0 -11 4 -11 8 0 5 7 9 15 9 8 0 15 -4 15 -9 0
-4 9 -8 19 -8 11 0 27 -3 36 -6 13 -5 14 -8 3 -15 -7 -5 8 -6 36 -4 27 3 54 9
60 14 12 9 68 7 84 -3 5 -3 21 5 34 19 30 30 75 48 83 34 4 -5 11 -7 16 -4 17
11 9 -4 -13 -24 -17 -16 -24 -18 -36 -9 -11 10 -13 8 -10 -8 2 -13 -3 -20 -18
-22 -12 -2 -24 -13 -28 -25 -7 -29 0 -33 23 -13 13 12 21 14 26 6 5 -8 14 -5
27 10 17 18 22 19 30 8 6 -9 7 -5 2 12 -6 22 -5 23 9 12 10 -9 28 -11 49 -7
l33 6 -32 -17 c-18 -9 -33 -23 -33 -30 0 -14 -17 -18 -53 -15 -9 1 -31 -8 -49
-20 -21 -16 -33 -19 -36 -11 -6 18 -29 15 -42 -5 -9 -14 -10 -11 -4 17 5 29 4
33 -7 23 -20 -20 -38 -16 -32 7 10 38 -52 22 -87 -22 l-21 -28 30 6 c39 8 42
-12 4 -28 -16 -7 -40 -26 -55 -42 -24 -25 -25 -31 -12 -40 13 -10 13 -14 1
-30 -13 -18 -14 -17 -21 14 -4 24 -1 45 13 72 19 38 16 49 -7 26 -7 -7 -24
-13 -38 -13 -22 -1 -24 1 -9 11 10 8 12 14 6 19 -6 3 -11 2 -11 -3 0 -7 -42
-32 -55 -32 -2 0 -13 9 -24 21 -20 21 -41 19 -41 -5 0 -7 -16 -20 -35 -29 -49
-24 -54 -21 -21 9 20 20 25 29 15 34 -14 9 -60 -6 -71 -23 -6 -9 -8 -9 -8 1 0
19 -49 4 -80 -25 -13 -12 -20 -23 -14 -23 5 0 15 5 22 12 27 27 48 17 43 -20
-1 -7 4 -12 11 -11 7 1 26 -4 41 -11 23 -11 33 -11 48 -2 15 10 19 9 19 -2 0
-20 -18 -24 -83 -21 -32 1 -60 -2 -63 -6 -3 -5 -18 -9 -33 -9 -15 0 -36 -7
-47 -15 -17 -14 -13 -15 52 -13 56 1 75 -2 88 -15 26 -26 38 -21 31 13 -4 19
-3 30 4 30 6 0 11 -6 11 -14 0 -23 18 -28 42 -12 16 11 25 13 35 4 19 -16 16
-28 -8 -28 -15 0 -19 -4 -15 -16 6 -15 0 -16 -40 -10 -45 6 -46 5 -40 -18 4
-16 1 -26 -9 -30 -8 -3 -15 0 -15 7 0 10 -30 14 -59 8 -2 -1 2 -8 9 -16 9 -10
9 -15 1 -15 -6 0 -11 -5 -11 -12 0 -9 3 -9 12 0 17 17 41 15 34 -3 -7 -19 -5
-19 44 1 30 12 38 19 30 29 -7 9 -6 16 4 24 11 9 15 8 20 -4 3 -9 10 -13 16
-10 5 3 18 1 27 -4 17 -10 17 -10 1 -11 -10 0 -18 -6 -18 -14 0 -8 -7 -16 -15
-20 -8 -3 -15 -1 -15 4 0 16 -26 12 -41 -6 -23 -28 -92 -52 -147 -52 -34 0
-51 5 -49 12 2 6 10 11 18 12 8 0 26 2 42 2 15 1 27 8 27 16 0 15 -27 40 -44
41 -6 1 -19 5 -29 9 -11 5 -23 4 -30 -3 -9 -9 -6 -13 10 -17 21 -6 21 -7 5
-24 -9 -10 -24 -19 -32 -21 -20 -3 -71 22 -64 32 3 5 0 9 -7 9 -7 0 2 13 19
28 24 22 29 31 20 40 -8 8 -8 12 -1 12 6 0 16 -7 23 -15 15 -18 46 -20 56 -4
3 6 19 9 35 7 33 -5 38 6 11 21 -13 7 -22 7 -29 0 -11 -11 -53 8 -53 23 0 16
-41 7 -60 -12 -16 -16 -25 -18 -45 -10 -39 15 -44 11 -10 -7 25 -14 27 -18 11
-21 -10 -2 -23 1 -29 7 -6 6 -15 11 -19 11 -13 0 -9 -28 4 -32 7 -3 8 -7 2
-10 -5 -4 -18 0 -29 8 -19 15 -19 15 -1 26 15 8 16 12 5 20 -11 8 -10 9 4 4 9
-3 17 -1 17 3 0 13 -34 24 -38 12 -7 -21 -41 -11 -73 21 -20 21 -34 28 -37 20
-2 -6 -13 -12 -23 -12 -12 0 -17 -4 -13 -11 3 -6 14 -9 24 -6 20 5 50 -9 50
-25 0 -6 -9 -8 -20 -5 -11 3 -20 1 -20 -5 0 -6 -11 -3 -24 5 -13 9 -41 18 -62
20 -22 2 -48 8 -58 12 -13 6 -21 4 -24 -3 -4 -14 -42 -16 -42 -3 0 12 -67 51
-86 51 -9 0 -27 9 -41 20 -14 11 -34 20 -44 20 -10 0 -21 5 -24 10 -3 6 -13
10 -22 10 -13 0 -13 -2 -2 -16 12 -15 10 -16 -21 -9 -19 4 -50 14 -69 21 -18
8 -46 14 -61 14 -15 0 -35 9 -44 19 -9 10 -38 22 -63 26 -25 4 -53 9 -62 13
-11 4 -9 -2 7 -23 34 -43 72 -65 113 -65 38 0 92 -29 55 -30 -11 0 -16 -3 -12
-7 9 -10 109 -10 116 -1 12 15 100 9 122 -9 7 -6 24 -13 38 -16 14 -4 46 -22
71 -42 26 -20 58 -35 75 -36 42 -2 84 -19 84 -35 0 -8 19 -19 45 -25 46 -12
63 -33 23 -28 -25 3 -111 -32 -122 -50 -5 -7 -1 -9 11 -4 11 4 15 2 10 -3 -5
-5 -18 -9 -30 -9 -13 0 -23 -7 -25 -18 -3 -15 0 -18 17 -12 27 8 26 4 -1 -28
-26 -29 -69 -39 -76 -18 -3 10 0 12 13 7 14 -5 16 -2 11 19 -5 18 -2 25 9 25
8 0 15 5 15 10 0 11 -53 14 -63 3 -4 -3 1 -12 11 -19 15 -12 14 -13 -15 -14
-28 0 -33 4 -33 24 0 19 6 24 36 29 20 3 44 13 53 21 9 7 25 16 36 19 11 2 1
4 -23 4 -24 0 -49 6 -55 13 -10 10 1 11 51 8 34 -2 62 -1 62 4 0 4 -6 8 -14 8
-7 0 -19 7 -26 15 -7 9 -19 14 -26 11 -7 -3 -16 -1 -20 5 -3 6 -11 4 -18 -6
-11 -15 -15 -15 -50 6 -33 19 -39 20 -52 7 -8 -8 -12 -22 -8 -32 6 -15 8 -15
24 -1 16 14 17 13 18 -15 1 -28 -1 -29 -21 -18 -12 6 -27 18 -34 27 -9 12 -15
13 -23 5 -8 -8 -9 -14 -1 -18 6 -4 11 -14 11 -22 0 -11 -4 -12 -19 -5 -10 6
-22 7 -26 3 -5 -4 -5 -1 0 7 5 9 -9 29 -45 62 -57 53 -92 62 -110 29 -9 -17
-8 -19 7 -13 10 3 24 10 31 16 8 6 12 6 12 -1 0 -5 9 -12 20 -15 11 -3 20 -12
20 -21 0 -13 -7 -15 -42 -9 -39 6 -42 5 -29 -10 12 -15 11 -17 -3 -17 -9 0
-21 8 -27 18 -8 13 -23 17 -61 16 -27 -1 -52 -4 -54 -7 -10 -9 36 -19 57 -12
15 5 30 -3 60 -34 46 -46 54 -50 46 -20 -5 18 -2 20 24 14 18 -4 29 -3 29 4 0
18 20 12 46 -14 l24 -25 -26 -6 c-16 -4 -35 -2 -47 5 -13 8 -23 9 -29 3 -7 -7
-3 -12 11 -17 12 -3 19 -11 16 -16 -4 -5 3 -13 14 -17 17 -6 18 -9 6 -26 -15
-20 -35 -14 -35 11 0 15 -27 42 -43 43 -4 0 -4 -12 -1 -26 5 -19 4 -25 -5 -20
-6 4 -11 13 -11 20 0 18 -39 27 -61 15 -23 -12 -66 -12 -74 1 -3 5 3 10 15 10
25 0 25 34 0 36 -31 2 -33 4 -15 17 24 18 7 29 -50 31 -49 2 -50 -9 -3 -44 27
-20 29 -24 14 -32 -13 -7 -32 -2 -72 17 -35 17 -59 24 -65 18 -6 -6 -29 -1
-61 15 -42 20 -55 22 -70 13 -15 -9 -25 -9 -47 2 -15 8 -41 12 -58 10 -16 -3
-63 7 -106 21 -92 31 -112 33 -73 7 19 -13 24 -21 15 -24 -8 -2 -4 -2 8 -1 12
2 25 0 28 -6 3 -5 19 -10 34 -10 28 0 155 -60 180 -85 26 -26 2 -29 -31 -5
-25 18 -44 24 -83 23 -30 -1 -60 5 -75 14 -13 9 -44 17 -67 18 -46 1 -87 25
-45 25 35 0 27 30 -8 31 -16 1 -36 2 -42 3 -14 2 -54 -31 -47 -38 2 -3 17 -7
33 -10 15 -3 34 -10 42 -17 12 -10 10 -14 -16 -27 l-31 -15 41 -14 c32 -11 45
-12 56 -2 19 16 30 4 14 -16 -7 -8 -9 -15 -5 -15 4 0 -4 -9 -19 -21 -35 -28
-33 -39 9 -39 31 0 36 -4 41 -30 4 -16 9 -29 13 -28 21 2 31 -4 31 -19 0 -15
2 -16 10 -3 8 12 10 11 10 -8 0 -12 8 -26 18 -29 9 -4 27 -14 40 -24 13 -10
30 -15 38 -12 8 3 14 2 12 -3 -3 -13 22 -55 51 -85 43 -44 75 -85 91 -115 8
-16 21 -33 27 -37 7 -4 13 -18 13 -30 0 -13 18 -42 40 -66 28 -30 39 -49 35
-62 -4 -12 1 -23 14 -31 12 -7 21 -21 21 -30 0 -22 16 -22 95 -2 33 9 83 19
110 24 28 5 79 17 114 28 35 11 69 18 76 16 7 -3 50 0 96 7 46 6 95 13 109 14
14 2 59 8 100 14 83 12 236 29 320 37 53 4 229 5 335 0 28 -1 53 2 56 7 3 4
17 4 30 -2 14 -5 46 -8 72 -7 26 1 47 -2 47 -7 0 -4 20 -5 45 -2 33 4 47 1 51
-8 4 -10 24 -12 86 -9 61 3 83 1 89 -9 8 -12 10 -12 18 0 6 9 19 12 40 8 18
-4 31 -2 31 4 0 13 44 7 64 -10 12 -10 19 -11 30 -2 11 9 18 8 30 -4 9 -9 21
-13 27 -10 6 5 10 0 9 -11 -6 -51 14 -62 25 -14 8 37 22 39 31 4 6 -22 10 -24
36 -18 17 3 36 7 42 8 6 1 16 5 23 9 13 8 21 -1 33 -41 4 -15 11 -35 15 -45 6
-13 0 -20 -23 -28 -16 -5 -34 -20 -40 -32 -9 -18 -11 -19 -11 -4 -1 9 -6 17
-12 17 -6 0 -8 -9 -4 -20 4 -11 2 -20 -4 -20 -6 0 -11 -4 -11 -8 0 -5 13 -7
29 -4 25 3 29 0 34 -26 3 -16 3 -46 0 -66 -3 -20 -1 -36 4 -36 17 0 23 13 12
26 -8 9 -5 15 10 23 17 9 22 8 31 -9 6 -11 7 -20 2 -20 -6 0 -12 -10 -15 -23
-6 -21 -6 -21 8 -3 14 19 15 17 15 -18 0 -33 -3 -38 -20 -33 -11 3 -20 1 -20
-3 0 -5 8 -11 18 -13 13 -4 14 -5 1 -6 -8 0 -21 -17 -29 -36 -8 -19 -18 -35
-23 -35 -5 0 -21 -9 -36 -20 -20 -13 -41 -18 -72 -16 -24 1 -50 -2 -57 -7 -8
-7 -18 -5 -30 7 -25 22 -37 20 -56 -9 -14 -22 -15 -25 -1 -25 17 0 20 -16 5
-25 -5 -3 -10 -1 -10 4 0 6 -9 11 -20 11 -11 0 -19 5 -17 11 1 6 -4 14 -10 16
-7 3 -13 -2 -13 -10 0 -20 -25 -28 -40 -14 -10 9 -11 7 -5 -13 4 -14 13 -28
19 -32 6 -4 7 -8 3 -8 -4 0 -19 7 -33 16 -17 11 -28 14 -35 7 -13 -13 35 -45
63 -41 12 2 23 -3 25 -9 3 -7 -3 -13 -12 -13 -27 0 -11 -25 18 -28 14 -2 28
-11 30 -20 3 -15 5 -14 13 3 17 37 52 24 45 -17 0 -5 10 -8 24 -8 27 0 32 -9
13 -28 -8 -8 -8 -15 3 -28 12 -15 12 -17 0 -9 -11 6 -13 3 -8 -16 4 -13 7 -28
7 -32 0 -5 4 -6 10 -2 5 3 7 12 4 19 -3 8 -1 17 5 21 19 11 26 -27 8 -40 -10
-7 -17 -18 -17 -26 -1 -9 -4 -8 -11 4 -7 12 -14 15 -22 9 -7 -5 -26 -13 -43
-16 -30 -7 -48 -32 -45 -63 1 -7 -9 -11 -25 -10 -15 1 -29 -4 -31 -11 -4 -9
47 -12 231 -12 207 0 236 2 236 16 0 8 5 12 10 9 6 -4 8 -10 5 -15 -4 -6 115
-10 292 -9 261 0 296 2 278 14 -11 8 -26 19 -32 25 -18 15 -16 69 2 76 26 10
18 60 -12 84 l-28 21 40 -5 c39 -5 40 -4 57 36 10 23 16 43 15 45 -2 2 -21 -4
-42 -13 -37 -15 -68 -15 -135 2 -21 6 -23 4 -12 -7 12 -13 18 -58 6 -46 -4 3
-15 2 -25 -4 -21 -11 -81 9 -94 32 -9 14 37 59 61 59 17 0 18 -5 -7 71 -12 35
-29 72 -40 82 -10 10 -16 24 -12 33 3 9 0 20 -8 25 -22 13 -49 11 -49 -5 0
-23 -23 -25 -49 -5 -13 11 -32 19 -42 19 -27 0 -23 22 9 52 51 48 103 62 131
35 11 -10 13 1 8 63 -7 101 -13 113 -48 106 -16 -3 -29 -2 -29 3 0 11 57 20
82 13 24 -6 44 -46 53 -105 5 -30 12 -47 21 -47 8 0 14 -5 14 -11 0 -6 9 -22
20 -36 11 -14 20 -36 20 -48 0 -29 28 -53 71 -61 19 -4 47 -13 63 -21 27 -14
28 -14 21 3 -4 11 -15 46 -24 79 -16 59 -17 60 -59 67 -95 16 -124 54 -83 109
l22 29 -35 54 c-43 68 -75 133 -69 140 20 20 125 -84 138 -136 6 -23 11 -27
29 -22 32 8 97 7 125 -1 21 -7 22 -6 12 14 -7 11 -15 21 -20 21 -21 0 -43 80
-39 144 2 36 6 67 8 70 14 13 69 -12 105 -49 52 -51 75 -62 75 -35 0 59 -48
112 -100 110 -56 -3 -72 -1 -65 9 3 5 18 12 33 16 15 3 32 15 37 28 6 13 23
24 44 28 28 6 38 3 58 -18 14 -13 23 -26 21 -28 -9 -9 -48 8 -48 21 0 17 -12
18 -28 2 -14 -14 -16 -58 -2 -58 5 0 25 -14 44 -31 l36 -31 29 21 c16 12 34
21 40 21 15 0 14 17 -5 80 -20 69 -10 80 79 87 55 5 73 2 108 -16 23 -13 51
-20 61 -18 10 3 21 1 24 -4 3 -5 0 -9 -5 -9 -16 0 -13 -37 3 -43 21 -8 36 15
30 44 -5 19 -3 21 5 9 6 -8 11 -23 11 -34 0 -16 2 -16 16 -5 8 7 22 25 30 40
12 25 12 32 -5 71 -10 24 -29 52 -42 63 -13 11 -18 13 -11 4 6 -9 9 -19 5 -23
-4 -4 -14 8 -23 26 -9 21 -24 34 -38 36 -22 3 -23 4 -5 17 29 23 54 17 89 -21
30 -31 34 -33 34 -14 0 28 -28 70 -47 70 -8 0 -31 8 -50 17 -38 17 -72 76 -73
123 -1 24 -1 24 -15 6 -8 -11 -15 -29 -15 -40 0 -12 -4 -28 -10 -36 -8 -13 -7
51 2 105 2 12 -3 21 -14 23 -13 2 -18 -7 -23 -42 -4 -24 -4 -49 0 -55 3 -6 1
-11 -4 -11 -6 0 -11 8 -11 18 -1 16 -1 16 -11 -1 -6 -11 -20 -17 -32 -15 -19
2 -29 -4 -26 -14 0 -2 1 -31 3 -66 l2 -63 -35 3 c-45 4 -58 41 -30 90 10 18
32 61 49 96 20 41 42 69 60 80 17 9 30 22 30 28 0 6 17 16 38 22 21 7 47 21
57 32 17 19 20 19 43 4 13 -9 52 -18 86 -21 34 -3 75 -14 93 -25 18 -10 44
-18 59 -16 15 2 29 -3 31 -9 7 -20 -53 -16 -97 7 -22 11 -54 20 -72 20 l-33 0
35 -21 c46 -28 90 -70 90 -86 0 -8 11 -13 28 -13 48 0 96 -19 119 -47 l23 -28
0 25 c0 14 16 50 36 80 20 30 45 78 55 107 24 63 40 77 89 78 31 1 41 -3 49
-22 6 -13 6 -25 1 -28 -13 -8 15 -68 35 -75 15 -5 14 -8 -4 -32 l-21 -26 36
-27 c48 -37 78 -103 64 -141 -16 -40 -7 -39 28 5 20 24 27 42 21 48 -15 15
-14 81 3 100 8 10 25 38 37 63 13 25 36 59 53 77 l30 31 -40 21 c-22 11 -51
34 -64 49 -26 34 -62 54 -98 58 -14 2 -26 8 -28 14 -2 5 -14 10 -26 10 -13 0
-36 12 -52 27 -41 39 -85 73 -95 73 -22 0 -5 -20 36 -45 25 -14 43 -30 40 -35
-6 -10 -58 6 -93 28 -12 8 -37 18 -55 21 -46 9 -46 38 -1 84 20 21 34 40 30
44 -3 4 1 17 9 30 9 13 11 23 6 23 -5 0 -13 -4 -16 -10 -20 -32 -54 24 -36 59
7 11 18 21 26 21 19 0 47 -29 39 -42 -10 -16 46 -58 78 -58 39 0 95 -39 108
-74 13 -37 17 -32 34 35 11 41 12 56 3 61 -35 19 -57 47 -51 63 5 13 -2 26
-27 46 -19 16 -31 29 -27 29 4 0 22 -13 40 -29 36 -31 78 -49 78 -33 0 6 -20
22 -44 36 -26 15 -50 39 -60 59 -13 29 -20 33 -41 29 -28 -5 -33 -20 -10 -28
8 -4 15 -10 15 -16 0 -5 -13 0 -29 11 -39 28 -65 28 -56 0 6 -18 3 -20 -22
-17 -35 4 -45 37 -14 45 28 7 17 21 -65 79 -71 51 -84 55 -55 18 31 -40 25
-49 -15 -25 -33 19 -36 20 -29 4 21 -53 15 -61 -42 -54 -7 1 -13 -3 -13 -9 0
-5 -7 -10 -15 -10 -8 0 -15 -4 -15 -10 0 -5 -11 -10 -25 -10 -25 0 -25 -1 -9
-25 19 -29 36 -32 58 -10 19 19 37 19 30 0 -4 -10 0 -15 15 -15 12 0 21 6 21
13 1 17 40 -32 40 -50 0 -11 -7 -14 -22 -10 -11 3 -34 -1 -50 -9 -36 -19 -64
-5 -83 39 -7 18 -30 48 -49 66 -32 31 -36 32 -36 15 0 -12 -3 -23 -6 -27 -10
-9 -34 4 -34 19 0 8 -5 14 -11 14 -7 0 -9 -10 -5 -25 7 -29 -13 -35 -34 -10
-22 27 -22 8 0 -36 l22 -42 -28 22 c-19 15 -30 18 -35 10 -10 -16 -55 18 -70
54 -14 33 -40 37 -31 5 4 -16 2 -19 -8 -13 -10 6 -12 3 -7 -11 4 -10 -11 1
-33 26 -41 45 -60 95 -20 52 12 -12 23 -22 26 -22 6 0 -24 57 -33 63 -12 7
-63 -4 -63 -13 0 -5 22 -32 50 -62 27 -29 48 -59 45 -66 -3 -8 -5 -19 -5 -25
0 -7 -7 -3 -15 7 -15 20 -20 12 -16 -21 2 -15 -35 -17 -44 -3 -9 15 -25 12
-25 -5 0 -21 -18 -19 -23 3 -4 16 -5 16 -6 0 -1 -20 -26 -24 -36 -8 -5 8 -11
7 -21 -1 -11 -9 -15 -7 -20 7 -4 11 -12 25 -18 33 -6 7 -10 23 -11 34 0 11 -6
22 -12 24 -16 6 -17 -29 -2 -44 8 -8 6 -17 -8 -32 l-20 -21 -13 27 -14 28 -6
-35 c-4 -26 -7 -31 -12 -17 -9 20 -30 19 -39 -3 -5 -11 -16 -4 -45 29 l-39 43
-6 -33 -6 -34 -10 25 c-10 22 -12 23 -18 7 -5 -11 -14 -16 -25 -12 -11 3 -20
-2 -28 -17 -8 -18 -11 -19 -11 -5 -1 19 -21 24 -21 4 0 -21 -40 -15 -46 8 -3
11 -16 25 -29 32 -22 10 -25 9 -25 -9 0 -11 -5 -18 -12 -15 -7 2 -12 15 -10
28 2 18 -10 39 -42 74 -25 28 -46 44 -46 38 0 -7 -4 -13 -10 -13 -5 0 -10 17
-10 38 0 30 -6 42 -32 64 -18 14 -30 29 -27 33 4 3 14 -1 22 -9 9 -9 22 -13
31 -10 10 4 20 -5 30 -25 18 -34 62 -61 101 -61 14 0 25 -5 25 -11 0 -5 5 -7
10 -4 6 3 10 15 10 26 0 23 9 24 47 5 15 -8 46 -22 68 -32 22 -9 56 -31 75
-50 24 -22 39 -31 49 -25 15 10 3 39 -33 81 -26 29 -49 80 -37 80 12 0 61 -47
61 -59 0 -5 20 -23 45 -40 25 -17 45 -26 45 -21 0 5 -7 13 -16 18 -31 17 -11
33 20 17 16 -9 31 -13 34 -10 3 3 0 5 -8 5 -10 0 -10 3 0 15 8 9 8 15 2 15
-13 0 -72 49 -72 60 0 4 11 5 25 2 30 -5 48 25 22 39 -9 5 -24 17 -33 27 -13
13 -16 13 -12 2 8 -25 -23 -40 -48 -23 -12 7 -47 16 -78 18 -30 3 -65 10 -77
17 -18 11 -22 11 -26 0 -4 -9 -8 -10 -18 -2 -7 6 -26 12 -43 13 -16 1 -28 5
-26 9 3 4 -4 12 -15 17 -14 8 -21 8 -24 -2 -4 -9 -8 -8 -16 3 -6 8 -11 18 -11
22 0 10 54 2 78 -11 13 -7 22 -7 30 1 9 9 12 9 12 -1 0 -8 6 -11 16 -7 9 4 24
0 33 -8 21 -19 77 -33 67 -17 -4 6 -13 11 -19 11 -7 0 -22 18 -35 40 -12 22
-27 40 -33 40 -6 0 -7 -4 -4 -10 12 -19 -20 -10 -47 14 -17 14 -28 33 -28 49
0 34 16 43 32 17 7 -11 18 -20 24 -20 6 0 23 -10 38 -21 37 -29 54 -13 32 29
-9 17 -16 39 -16 48 0 9 -11 32 -25 50 -14 18 -25 39 -25 46 1 8 6 6 15 -6 8
-11 17 -17 21 -14 10 11 54 -35 49 -51 -6 -19 54 -61 87 -61 13 0 34 -12 47
-25 12 -14 27 -22 32 -19 12 7 -50 80 -74 87 -10 3 -15 11 -11 21 4 10 -6 20
-33 33 -34 17 -38 22 -35 52 3 31 -19 71 -40 71 -12 0 -65 38 -105 74 -22 20
-38 27 -53 23 -16 -4 -24 -1 -27 13 -4 14 -13 18 -39 15 -19 -2 -40 3 -48 10
-10 11 -15 10 -24 -6 -7 -10 -17 -19 -23 -19 -5 0 -8 4 -5 9 7 11 -34 91 -46
91 -4 0 -8 4 -8 10 0 5 21 -2 48 -15 55 -28 71 -15 26 22 l-29 24 27 -5 c19
-3 25 -1 22 9 -7 17 -40 25 -53 12 -7 -7 -15 -6 -26 3 -10 9 -30 11 -61 6 -37
-5 -53 -2 -80 15 -19 11 -39 29 -44 40 -6 10 -18 19 -28 19 -16 -1 -16 -1 0
-14 17 -13 15 -56 -3 -56 -5 0 -5 -8 0 -17 5 -10 12 -26 15 -36 4 -11 11 -15
18 -11 10 5 10 4 1 -6 -9 -9 -9 -19 -2 -32 17 -31 4 -31 -31 -2 -24 21 -34 24
-40 14 -9 -15 -30 -5 -30 16 0 8 -4 14 -9 14 -5 0 -19 15 -30 34 -38 61 -109
119 -80 65 9 -17 3 -15 -28 10 -32 26 -40 39 -41 68 -1 22 -10 45 -23 60 -19
19 -20 23 -6 23 9 0 17 4 17 10 0 5 3 9 8 9 19 -3 23 2 12 16 -11 13 -10 14 3
10 11 -5 17 2 22 23 8 37 35 70 53 65 7 -3 12 4 12 17 0 17 4 20 20 15 11 -3
20 -2 20 3 0 8 23 18 57 24 5 0 13 7 18 15 6 7 25 21 44 31 19 9 41 27 49 40
15 23 15 23 -29 20 -39 -3 -44 0 -47 20 -2 12 -10 22 -17 22 -8 0 -19 8 -24
19 -11 20 -97 61 -146 68 -16 3 -36 10 -42 15 -9 8 -13 7 -13 -3 0 -13 -19
-15 -101 -10 -11 0 -23 9 -25 19 -4 11 -17 18 -42 20 -20 1 -38 7 -40 12 -7
20 -59 -19 -65 -49 -6 -28 -9 -30 -37 -25 -27 6 -30 4 -30 -18 0 -14 3 -28 7
-32 4 -3 8 -17 10 -29 2 -12 13 -30 26 -40 93 -74 117 -101 117 -129 0 -15 9
-45 20 -65 11 -21 20 -43 20 -50 0 -7 8 -13 18 -13 16 0 19 -8 18 -44 -1 -24
-4 -42 -8 -40 -4 2 -10 -16 -13 -40 -8 -52 -34 -81 -64 -71 -12 3 -21 13 -21
21 0 20 -27 18 -59 -5 -28 -20 -87 -18 -76 3 3 6 8 19 11 29 4 9 10 17 15 17
5 0 9 5 9 10 0 6 -7 10 -15 10 -8 0 -15 -6 -15 -14 0 -16 -50 -59 -58 -51 -3
3 7 16 21 29 35 32 34 37 -5 34 -23 -2 -33 1 -33 12 0 17 -55 39 -102 39 -20
1 -33 6 -33 14 0 8 -17 12 -57 11 -34 -1 -67 4 -80 12 -12 8 -41 14 -63 14
-23 0 -39 4 -36 8 2 4 -10 8 -28 8 -18 0 -51 10 -74 22 -24 12 -49 22 -56 22
-7 0 -25 9 -39 20 -14 11 -32 20 -40 20 -18 0 -32 18 -23 28 8 7 63 6 122 -3
30 -4 42 -10 38 -18 -5 -8 -3 -8 7 1 7 6 22 12 34 12 19 -1 19 -1 3 -14 -22
-16 -24 -30 -4 -23 10 4 13 1 9 -9 -3 -9 2 -14 16 -14 12 0 21 5 21 10 0 6 17
10 38 10 l37 -1 -30 -13 c-26 -12 -28 -15 -12 -21 10 -4 23 -3 29 3 6 6 21 7
40 2 35 -10 58 -4 58 17 0 11 7 13 29 8 23 -5 32 -2 40 14 6 11 11 24 11 29 0
12 -81 22 -95 12 -13 -10 -75 0 -75 11 0 4 -27 16 -61 25 -33 9 -63 23 -66 31
-4 9 -25 13 -72 13 -91 0 -102 10 -50 45 46 33 163 52 187 32 10 -8 16 -7 23
4 20 31 14 33 -156 34 -123 1 -260 14 -321 31 -28 8 -97 17 -155 20 -57 3
-133 11 -169 19 -76 17 -140 19 -140 5 0 -5 -7 -10 -15 -10 -11 0 -14 -7 -9
-25 4 -17 1 -27 -9 -31 -9 -3 -18 -23 -22 -45 -4 -21 -12 -39 -18 -39 -8 0 -8
-3 0 -11 7 -7 73 -15 160 -20 654 -35 660 -36 668 -57 5 -13 -7 -14 -82 -8
-157 12 -352 9 -369 -5 -11 -9 -18 -9 -26 -1 -7 7 -30 12 -53 11 -45 0 -292
-47 -258 -48 31 -1 54 -12 47 -22 -3 -5 5 -7 18 -5 13 3 23 5 23 5 0 2 99 6
393 16 158 6 212 5 212 -3 0 -14 -32 -16 -205 -18 -187 -1 -217 -3 -210 -14 3
-5 39 -10 78 -10 40 0 79 -5 87 -11 14 -10 -52 -9 -265 6 -33 2 -93 -1 -134
-8 -63 -10 -74 -15 -82 -35 -8 -20 -14 -23 -38 -19 -19 4 -33 1 -41 -8 -8 -10
-31 -15 -66 -15 -58 0 -62 3 -39 27 8 8 13 19 10 24 -4 5 1 9 9 9 43 0 22 55
-30 76 -19 8 -34 21 -34 29 0 19 -34 37 -57 28 -22 -8 -96 -57 -117 -79 -9 -8
-16 -31 -16 -51 l0 -35 40 7 c26 4 40 3 40 -4 0 -10 -30 -16 -54 -12 -5 1 -25
-5 -45 -12 -20 -8 -61 -18 -92 -22 -67 -8 -71 -11 -86 -52 -13 -37 -3 -44 18
-13 10 15 34 23 89 31 l75 11 43 -41 c40 -38 60 -46 104 -42 21 2 31 -15 21
-33 -14 -26 -139 -103 -150 -93 -2 3 -5 20 -6 38 -2 25 -9 37 -27 46 -30 15
-89 17 -124 3 -19 -7 -30 -5 -48 10 -17 14 -27 16 -42 8 -11 -6 -40 -7 -70 -3
-28 4 -66 7 -83 8 -18 0 -33 3 -34 6 0 3 -2 14 -4 25 -4 20 14 65 27 67 28 4
34 4 40 -6 5 -6 8 -5 8 3 0 7 4 11 8 8 4 -2 19 4 32 14 19 15 22 22 13 31 -9
9 -19 9 -45 -1 -18 -8 -36 -18 -40 -24 -3 -5 -25 -10 -48 -10 -29 -1 -46 -7
-56 -20 -18 -25 -18 -36 1 -36 18 0 18 -13 0 -65 -18 -50 -9 -60 51 -60 42 0
46 -2 51 -27 3 -16 9 -28 14 -28 15 0 10 -49 -7 -86 -9 -19 -29 -41 -43 -49
-23 -12 -31 -11 -60 3 -63 30 -88 111 -59 191 5 13 7 26 5 28 -3 2 -26 -8 -52
-22 -61 -32 -122 -33 -160 -3 -33 26 -57 80 -50 111 5 17 -2 30 -24 50 -38 33
-41 33 -41 3 0 -14 10 -32 22 -40 12 -9 19 -18 16 -22 -4 -3 -24 8 -46 26 -37
29 -53 52 -66 93 -7 22 -46 23 -46 1 0 -9 13 -31 29 -48 73 -79 111 -124 111
-133 0 -5 -9 -18 -21 -29 l-21 -19 23 -18 c28 -23 20 -31 -17 -16 -32 14 -39
16 -54 18 -5 0 -10 16 -10 34 -1 17 -7 46 -14 62 l-13 30 -17 -32 c-9 -18 -30
-49 -47 -68 -30 -34 -31 -36 -14 -55 17 -19 17 -23 -3 -87 -12 -38 -24 -80
-28 -95 -8 -38 -30 -35 -38 4 -3 17 -14 40 -23 50 -10 11 -20 40 -23 66 -4 42
-8 47 -30 47 -22 0 -25 -4 -22 -32 3 -24 -1 -33 -12 -33 -26 0 -28 -18 -7 -65
13 -31 26 -45 39 -45 29 0 49 -30 56 -85 5 -41 4 -46 -6 -32 -9 11 -21 15 -35
11 -26 -7 -30 -19 -8 -28 8 -3 15 -15 15 -26 0 -18 -6 -20 -57 -20 -75 0 -99
14 -58 32 29 12 28 13 -33 16 -57 3 -68 0 -125 -34 -34 -21 -71 -46 -82 -55
-32 -27 -86 -51 -101 -45 -8 3 -14 14 -14 24 0 14 -9 21 -30 26 -17 3 -33 14
-36 23 -3 10 -11 30 -19 46 -27 53 23 112 113 132 25 5 33 3 38 -10 9 -22 1
-28 -41 -30 -24 -2 -41 -10 -55 -28 -26 -33 -26 -34 10 -35 20 0 33 6 40 19
15 27 28 24 65 -15 29 -31 36 -34 74 -29 22 3 41 11 41 18 0 6 -21 37 -47 67
-60 69 -73 85 -101 125 -13 18 -43 45 -67 59 -44 26 -45 26 -27 50 9 13 20 24
24 24 4 0 20 -19 36 -42 26 -38 95 -107 149 -148 10 -8 38 -39 62 -67 l44 -53
37 40 c21 22 44 40 52 40 7 0 24 7 36 16 l23 15 -31 29 c-33 31 -38 61 -19
136 15 59 2 75 -37 45 -70 -55 -203 12 -224 113 -6 29 -9 31 -53 31 -29 0 -51
5 -56 14 -9 13 -12 13 -114 -5 -29 -5 -37 -1 -59 24 -14 17 -28 48 -32 70 l-6
40 -32 -10 c-18 -6 -51 -20 -72 -31 -38 -20 -39 -20 -34 -1 4 17 1 19 -28 16
-26 -3 -37 2 -56 24 -51 63 -119 123 -134 117 -8 -3 -21 3 -28 12 -12 16 -19
17 -57 7 -24 -6 -61 -14 -82 -17 -24 -4 -43 -14 -53 -30 -18 -27 -11 -47 14
-43 9 2 17 -3 17 -10 0 -18 34 -42 59 -42 21 1 157 -30 252 -56 28 -8 58 -14
68 -14 24 0 79 -30 71 -38 -4 -4 -31 -7 -60 -7 -37 0 -59 -5 -72 -18 -22 -19
-57 -13 -49 9 7 19 -4 24 -123 50 -114 25 -151 29 -151 16 0 -14 69 -91 94
-104 13 -7 50 -27 83 -45 69 -36 91 -59 76 -74 -8 -8 -32 0 -82 25 -73 37
-101 44 -101 26 0 -5 -13 -25 -30 -43 -16 -19 -27 -37 -23 -41 3 -3 60 -6 125
-6 91 0 119 -3 116 -12 -3 -8 -51 -18 -134 -28 -110 -13 -129 -18 -132 -33 -7
-36 8 -62 45 -81 21 -10 44 -21 52 -25 7 -3 20 -27 28 -51 20 -59 32 -73 48
-60 16 13 31 -6 26 -33 -1 -10 5 -27 14 -37 15 -16 14 -18 -12 -23 -21 -4 -37
2 -65 24 -21 16 -52 32 -70 36 -35 7 -80 50 -98 93 -8 19 -8 44 -2 80 10 55
-7 151 -28 158 -5 2 -10 12 -10 22 0 10 -9 22 -20 25 -11 3 -25 15 -31 26 -10
20 -4 59 10 59 5 0 11 28 15 62 5 51 12 68 36 93 17 17 30 34 30 37 0 4 -13 9
-29 13 -29 6 -41 26 -41 74 0 14 19 44 46 75 51 56 78 75 110 76 27 0 45 20
88 103 20 37 41 76 48 86 9 15 9 28 -1 59 -22 66 3 82 50 31 l28 -30 61 12
c33 6 63 9 67 5 3 -3 -1 -6 -10 -6 -10 0 -17 -2 -17 -5 0 -10 45 -75 52 -75 4
0 8 17 10 38 3 36 5 37 48 43 32 5 52 3 69 -8 22 -14 23 -17 9 -27 -14 -10
-15 -20 -6 -59 5 -26 14 -47 19 -47 5 0 9 5 9 10 0 6 18 10 39 10 22 0 43 -4
46 -10 3 -5 14 -10 23 -10 25 -1 62 -35 62 -58 0 -12 -4 -32 -10 -46 -8 -22
-5 -27 36 -51 37 -22 53 -25 84 -20 45 8 44 18 -4 67 -24 23 -25 28 -14 54 7
16 23 44 37 62 27 37 24 51 -29 110 -35 38 -55 40 -87 10 -19 -18 -36 -23 -80
-23 -68 0 -82 19 -22 29 30 5 52 17 76 42 l33 36 53 -13 c50 -12 87 -33 87
-50 0 -4 14 -29 31 -54 33 -48 61 -56 67 -20 6 31 16 37 46 25 17 -6 31 -22
38 -42 10 -27 12 -29 18 -12 4 10 11 42 15 69 10 69 20 84 71 107 32 14 44 24
41 36 -2 9 -10 16 -18 14 -7 -2 -23 -3 -34 -3 -11 0 -30 1 -42 1 -16 0 -21 5
-17 15 5 12 -2 15 -31 15 -35 0 -36 1 -30 30 6 27 4 30 -17 30 -35 0 -44 -11
-52 -58 l-6 -43 62 4 c59 4 61 4 33 -9 -47 -21 -121 -18 -137 5 -20 29 -86 26
-115 -5 -31 -34 -43 -30 -43 14 0 59 -46 91 -95 66 -61 -31 -111 -8 -107 50 2
28 -1 36 -14 36 -9 0 -32 16 -51 35 -28 29 -38 33 -53 25 -28 -15 -34 -13 -54
20 -17 29 -19 30 -69 24 -35 -4 -61 -15 -79 -31 -24 -23 -28 -24 -55 -11 -22
11 -27 20 -25 41 2 22 -1 27 -19 27 -11 0 -33 9 -47 21 -20 15 -34 19 -63 14
l-37 -6 6 46 c4 40 2 47 -15 51 -17 5 -19 12 -15 58 6 78 -30 128 -57 78 -6
-10 -26 -29 -45 -43 -36 -25 -56 -56 -56 -89 0 -13 -7 -20 -20 -20 -20 0 -31
15 -35 48 -1 10 -5 25 -9 35 -13 29 1 47 37 47 57 0 145 91 109 113 -4 3 -26
-6 -50 -20z m-116 -1022 c6 -12 20 -32 32 -44 12 -14 22 -39 24 -67 3 -39 1
-44 -18 -44 -12 0 -45 12 -73 27 -39 22 -51 34 -51 52 0 39 10 53 32 47 18 -4
20 -2 15 20 -11 43 18 51 39 9z m3239 -377 c13 -5 14 -9 3 -15 -19 -13 10 -30
31 -20 9 5 33 11 54 15 21 4 46 9 55 12 9 3 4 -3 -13 -12 -16 -10 -32 -18 -35
-19 -20 -1 -120 -41 -120 -47 0 -10 4 -10 60 3 75 16 142 19 157 8 19 -17 16
-26 -11 -33 -14 -3 -28 -15 -31 -27 -9 -29 -41 -20 -37 10 2 20 0 22 -13 11
-12 -10 -13 -16 -4 -27 14 -16 5 -28 -13 -17 -21 13 -90 15 -105 3 -9 -8 -13
-8 -13 -1 0 6 7 15 16 20 22 13 3 24 -43 25 l-35 1 23 18 c13 10 33 25 44 33
18 15 18 15 -13 9 -25 -5 -32 -3 -32 9 0 10 -6 14 -15 11 -25 -10 -17 5 13 20
30 17 52 19 77 10z m-2438 -155 c-9 -5 -13 -18 -10 -34 3 -15 -6 -49 -25 -88
-45 -92 -49 -117 -23 -124 26 -7 28 -39 4 -65 -23 -25 -4 -45 27 -28 68 36
180 -57 165 -137 -17 -91 -181 -56 -280 60 -19 22 -35 46 -35 53 0 6 -7 18
-17 25 -13 11 -17 11 -20 2 -3 -7 -13 -13 -23 -13 -13 0 -17 5 -13 18 2 11 -2
35 -11 55 -12 31 -22 39 -60 49 -32 8 -46 17 -46 29 0 11 -11 20 -31 24 -32 7
-35 28 -5 33 62 12 156 -50 156 -102 0 -16 5 -26 15 -26 8 0 15 -8 15 -19 0
-13 9 -20 30 -24 17 -4 30 -13 30 -21 0 -7 7 -20 16 -27 14 -11 20 -10 40 14
13 16 24 39 24 53 0 28 -6 30 -27 8 -15 -15 -22 -10 -80 52 -34 37 -63 70 -63
74 0 12 24 30 40 30 9 0 27 -11 40 -25 l23 -24 19 24 c10 13 30 49 44 80 15
31 32 59 40 62 8 3 14 10 14 16 0 6 8 19 18 30 17 19 17 19 20 -3 2 -13 -3
-27 -11 -31z m969 -36 l67 -47 -36 -28 c-24 -20 -39 -41 -43 -64 -5 -29 -10
-34 -35 -34 -16 0 -43 -9 -61 -20 -41 -25 -48 -25 -48 0 0 28 51 212 63 228
14 18 20 16 93 -35z m3063 -126 c6 -8 8 -17 4 -20 -3 -4 -2 -7 4 -7 15 0 34
-50 28 -70 -3 -10 -1 -21 5 -25 13 -8 13 -65 0 -65 -6 0 -10 -17 -8 -40 1 -27
-3 -44 -14 -52 -9 -7 -19 -26 -22 -41 -9 -40 -55 -81 -72 -66 -16 13 -19 65
-4 74 6 3 10 17 10 31 0 13 4 24 10 24 8 0 7 -22 -5 -82 -2 -10 1 -18 5 -18 5
0 14 26 21 58 7 31 17 60 22 63 5 4 8 30 5 59 -5 46 -3 51 13 47 13 -4 16 0
12 12 -3 9 -10 21 -14 27 -5 6 -10 25 -11 43 -1 18 -6 35 -10 37 -11 7 -10 24
1 24 5 0 14 -6 20 -13z m-197 -30 c-5 -7 -6 -21 -1 -32 6 -15 8 -16 8 -4 1 20
42 33 53 16 4 -6 1 -15 -8 -20 -9 -5 -13 -16 -9 -27 4 -13 -6 -32 -32 -62 -56
-64 -61 -68 -69 -68 -4 0 -21 -12 -36 -27 l-28 -27 2 28 c2 17 13 36 28 47 36
26 61 52 56 57 -6 5 -41 -14 -61 -34 -21 -21 -31 -10 -18 19 20 39 22 67 6 82
-13 13 -13 16 1 21 8 3 18 14 21 24 4 13 18 20 43 22 45 4 56 0 44 -15z m118
-22 c0 -8 5 -15 10 -15 6 0 10 -9 10 -19 0 -11 -4 -23 -10 -26 -5 -3 -10 -14
-10 -24 0 -10 -10 -23 -23 -30 -12 -7 -29 -26 -36 -44 -8 -18 -19 -39 -26 -47
-7 -8 -18 -32 -26 -52 -13 -38 -24 -48 -31 -27 -2 7 -13 9 -26 5 -12 -4 -20
-11 -17 -16 3 -4 -4 -6 -16 -3 -12 3 -18 11 -15 20 4 10 1 11 -12 4 -22 -12
-57 12 -49 33 4 10 15 13 33 10 17 -3 34 2 46 13 19 17 19 17 13 -10 -8 -31
10 -38 20 -7 3 11 11 20 16 20 5 0 9 13 9 29 0 17 5 33 10 36 13 8 13 -3 -5
-60 -14 -49 -12 -72 5 -45 6 8 10 23 10 33 0 24 28 77 41 77 5 0 13 8 16 17 4
9 18 27 32 39 23 19 24 24 13 48 -16 36 -15 56 3 56 8 0 15 -7 15 -15z m-2190
-40 c6 -8 9 -19 6 -24 -4 -5 -2 -12 3 -15 13 -8 7 -54 -7 -68 -7 -7 -12 -18
-12 -26 0 -11 -10 -12 -42 -7 -56 9 -88 25 -106 53 -14 21 -13 22 21 22 36 0
36 0 22 27 -8 15 -12 30 -9 35 7 12 64 10 64 -2 0 -5 9 -10 20 -10 13 0 18 5
14 15 -8 19 10 19 26 0z m2588 -62 c6 -16 13 -38 17 -49 3 -12 14 -24 25 -27
11 -3 22 -17 26 -33 3 -16 17 -39 30 -52 24 -22 31 -57 16 -77 -14 -20 -43
-13 -55 13 -6 15 -14 29 -17 32 -3 3 -14 18 -24 34 -12 20 -21 25 -26 16 -5
-8 -9 -6 -14 7 -3 10 -13 29 -20 42 -11 19 -12 28 -3 43 11 17 13 17 24 1 10
-12 10 -20 1 -30 -9 -11 -8 -18 4 -29 11 -11 18 -12 22 -5 4 6 2 11 -3 11 -14
0 -14 27 0 32 7 2 3 17 -10 41 -23 40 -26 57 -12 57 5 0 13 -12 19 -27z m83
-47 c1 5 1 11 1 14 0 3 11 5 24 5 13 0 24 -5 24 -11 0 -18 144 -144 165 -144
3 0 5 17 5 38 l0 37 14 -30 c7 -16 18 -41 24 -55 l11 -25 0 28 c1 31 21 44 47
29 14 -8 13 -10 -10 -16 -23 -6 -26 -12 -26 -46 0 -42 -9 -50 -30 -25 -7 8
-21 15 -30 15 -10 0 -24 12 -30 28 -15 32 -83 88 -88 72 -2 -6 2 -17 8 -26 21
-24 4 -28 -20 -4 -17 17 -21 18 -18 4 6 -36 -23 -24 -41 16 -10 23 -32 53 -49
68 -17 15 -34 41 -38 57 l-7 30 32 -34 c17 -19 32 -30 32 -25z m-5167 -141
c-8 -12 -12 -30 -8 -39 8 -21 -5 -21 -22 2 -11 16 -13 15 -23 -11 -15 -40 -14
-47 10 -47 18 0 19 -2 9 -15 -7 -8 -23 -15 -35 -15 -12 0 -28 7 -35 15 -7 8
-24 15 -39 15 -15 0 -32 5 -38 11 -12 12 -6 39 11 51 7 5 4 8 -6 8 -30 0 -20
27 16 44 34 16 65 22 53 10 -7 -8 36 -44 52 -44 6 0 11 11 11 23 0 32 8 38 35
25 22 -10 23 -12 9 -33z m734 -197 c7 -7 8 -17 1 -29 -12 -24 24 -47 47 -29 7
7 11 16 8 21 -6 11 14 49 26 49 6 0 10 -10 10 -22 0 -13 7 -45 15 -73 10 -30
13 -65 10 -87 -7 -39 -27 -64 -44 -53 -6 3 -20 1 -31 -5 -33 -18 -86 10 -94
51 -3 18 -14 41 -22 51 -20 22 -13 67 17 109 22 31 38 36 57 17z m1146 -53 c5
-20 -1 -33 -28 -61 -34 -35 -36 -36 -108 -33 -40 1 -80 6 -88 9 -8 4 -42 4
-75 0 -70 -8 -85 -5 -85 21 0 26 42 45 135 58 44 7 96 16 115 20 19 5 56 9 81
10 42 1 47 -2 53 -24z m3459 -55 c3 0 7 8 10 18 4 15 5 15 12 -2 6 -13 4 -21
-3 -24 -7 -2 -12 -8 -12 -13 0 -14 38 -11 44 4 2 6 4 1 3 -13 -1 -14 3 -24 10
-23 6 1 16 -12 22 -29 9 -26 8 -35 -4 -47 -14 -14 -15 -13 -9 15 4 22 2 31 -8
31 -7 0 -21 4 -30 8 -14 5 -18 2 -18 -14 0 -15 5 -19 18 -15 14 5 14 4 -2 -6
-14 -10 -20 -10 -26 0 -4 7 -15 10 -23 7 -19 -7 -37 11 -37 38 0 15 -2 17 -9
6 -7 -10 -12 -8 -25 10 -19 28 -20 51 -4 95 l12 33 37 -40 c20 -21 39 -39 42
-39z m-5703 -55 c-10 -12 -10 -15 3 -15 9 0 32 -16 51 -35 20 -19 42 -35 51
-35 23 0 19 -11 -20 -52 -38 -42 -50 -45 -100 -23 -63 26 -67 98 -9 160 26 28
47 28 24 0z m671 -189 c-6 -7 -4 -16 5 -24 11 -10 15 -8 24 8 14 27 40 25 67
-4 22 -23 22 -24 4 -29 -11 -2 -24 0 -30 6 -8 8 -15 5 -26 -9 -23 -30 -14 -49
25 -50 62 -1 70 -4 82 -29 14 -30 24 -32 33 -5 9 28 86 100 108 100 14 0 18
-6 15 -27 -2 -23 -7 -27 -26 -25 -16 2 -27 -5 -40 -27 -9 -17 -29 -36 -44 -42
-15 -6 -33 -17 -39 -25 -17 -21 -82 -17 -112 6 -14 11 -35 45 -48 75 -24 58
-26 60 -48 46 -9 -6 -22 -6 -33 0 -22 12 -15 29 12 29 11 0 27 11 36 24 9 15
21 23 30 19 9 -3 11 -9 5 -17z m6133 -112 c8 -20 -9 -53 -41 -81 l-26 -21 43
-24 c23 -12 52 -29 64 -36 11 -7 31 -10 44 -7 18 4 25 1 29 -15 6 -23 8 -24
35 -9 16 9 19 8 16 -3 -3 -7 -18 -14 -35 -16 -17 -2 -39 -12 -49 -23 -23 -26
-104 -27 -111 -1 -2 9 -32 30 -66 47 -34 16 -65 33 -68 38 -4 6 -13 6 -20 1
-8 -5 -21 -7 -30 -6 -9 2 -28 -15 -44 -38 -42 -61 -81 -90 -121 -90 -19 0 -34
3 -34 8 0 4 -3 18 -7 31 -4 18 -3 22 6 17 13 -8 120 43 156 74 11 9 28 20 38
23 10 4 15 11 12 17 -4 7 -13 7 -26 0 -11 -6 -24 -8 -29 -5 -6 3 -10 1 -10 -4
0 -6 -5 -11 -12 -11 -6 0 -3 9 8 21 14 16 27 20 54 16 55 -6 79 8 155 96 19
21 61 22 69 1z m-1117 -64 c3 -11 9 -20 14 -20 5 0 9 -7 9 -16 0 -11 -6 -14
-21 -9 -18 6 -19 5 -10 -14 7 -12 17 -18 26 -15 8 3 28 -1 44 -9 17 -8 33 -11
38 -6 5 5 21 -3 39 -20 32 -31 89 -56 66 -29 -7 9 -9 24 -6 34 4 11 3 16 -1
11 -10 -9 -55 31 -55 49 0 7 -12 22 -27 33 -34 28 -25 35 29 23 36 -8 38 -10
13 -11 -29 -1 -29 -1 -7 -16 16 -12 26 -13 42 -5 15 8 27 7 47 -4 24 -12 29
-12 39 3 7 9 16 12 20 8 5 -4 2 -13 -6 -18 -12 -8 -10 -9 6 -5 15 5 28 -3 50
-31 52 -66 52 -67 5 -60 -41 5 -42 5 -25 -14 9 -10 24 -19 32 -19 17 0 41 -28
42 -49 0 -10 -5 -10 -25 3 -30 20 -39 20 -31 1 3 -8 2 -15 -2 -15 -4 0 -17 -3
-29 -6 -17 -5 -23 -2 -23 10 0 9 -4 16 -9 16 -5 0 -7 -10 -4 -22 4 -21 4 -21
-9 2 -13 25 -68 42 -68 22 0 -15 73 -70 86 -65 7 2 11 -4 10 -14 0 -10 7 -19
19 -21 17 -4 18 -2 6 12 -17 20 -8 20 29 1 21 -11 30 -23 30 -40 0 -16 10 -30
30 -42 17 -9 30 -23 30 -30 0 -9 8 -11 23 -8 19 5 29 -1 51 -29 21 -29 31 -34
44 -27 13 7 24 4 38 -7 30 -25 56 -70 44 -77 -6 -4 -7 -11 -4 -17 5 -7 2 -8
-6 -3 -9 6 -10 1 -5 -16 6 -23 -9 -8 -102 101 -12 14 -24 22 -28 18 -6 -6 -2
-12 43 -64 39 -43 92 -140 92 -167 0 -38 -24 -34 -48 8 -11 19 -11 19 -12 -6
0 -14 3 -29 8 -33 8 -9 11 -56 2 -56 -13 0 -63 40 -94 76 l-35 39 23 -58 c13
-31 26 -60 30 -64 3 -3 6 -11 6 -16 0 -6 -11 0 -25 13 -14 13 -25 29 -25 36 0
6 -6 14 -14 17 -10 4 -13 -5 -10 -36 2 -31 0 -36 -6 -21 -5 12 -17 24 -28 26
-17 5 -18 2 -12 -26 4 -17 11 -39 15 -48 4 -10 3 -18 -3 -18 -5 0 -12 9 -15
20 -3 11 -10 20 -15 20 -6 0 -8 -10 -4 -22 l5 -23 -23 20 c-16 14 -24 16 -27
8 -3 -7 -12 -13 -20 -13 -12 0 -13 3 -4 13 8 11 7 18 -7 31 -10 9 -22 13 -25
9 -4 -3 -7 1 -7 10 0 9 -5 19 -11 23 -12 7 -11 -3 6 -66 6 -23 5 -23 -20 8
-14 17 -32 32 -38 32 -8 0 -7 -4 1 -12 7 -7 12 -21 12 -32 0 -18 -4 -16 -29
12 -36 39 -40 40 -33 5 5 -28 5 -28 -17 -9 -19 17 -21 18 -21 2 0 -12 -14 -3
-45 30 -30 31 -44 53 -40 64 3 9 -1 23 -10 30 -21 17 -20 3 6 -72 14 -43 17
-64 10 -71 -8 -8 -11 -8 -11 0 0 15 -52 93 -62 93 -11 0 -10 -7 3 -32 8 -15 8
-19 0 -14 -6 4 -21 4 -32 1 -16 -5 -19 -12 -15 -31 12 -46 -13 -23 -46 42 -18
36 -34 61 -36 55 -2 -6 4 -25 12 -42 24 -49 19 -48 -25 1 l-40 45 18 -40 c10
-22 22 -43 28 -47 5 -4 6 -10 2 -14 -4 -4 -15 0 -24 8 -10 8 -26 18 -35 21
-10 4 -18 16 -18 27 0 24 -15 56 -37 82 -12 14 -19 15 -35 5 -16 -10 -21 -9
-30 7 -14 24 -58 66 -69 66 -5 0 -9 -7 -9 -15 0 -8 4 -15 9 -15 4 0 14 -20 21
-45 13 -47 37 -65 26 -19 -8 29 0 27 46 -15 24 -21 39 -71 22 -71 -16 0 -44
23 -44 35 0 8 -5 15 -10 15 -7 0 -8 -23 -5 -61 4 -41 3 -59 -4 -54 -6 3 -11
12 -11 19 0 21 -27 40 -33 24 -4 -10 -8 -10 -16 2 -9 13 -11 13 -11 -2 0 -25
-19 -22 -29 5 -10 24 -5 40 10 32 15 -10 11 26 -10 84 -10 30 -26 58 -36 63
-18 11 -36 1 -20 -10 18 -13 35 -51 35 -79 0 -22 -2 -25 -10 -13 -8 12 -10 9
-10 -12 0 -15 5 -30 10 -33 6 -3 10 -16 9 -28 -1 -21 -1 -21 -8 2 -4 14 -13
27 -20 29 -9 3 -11 -2 -7 -14 3 -11 -3 -32 -14 -49 -16 -24 -20 -26 -25 -12
-4 9 -5 22 -3 29 3 7 -1 19 -9 26 -7 7 -13 25 -13 38 0 14 -4 22 -10 19 -5 -3
-10 -17 -10 -31 0 -21 -4 -24 -20 -19 -11 4 -20 2 -20 -4 0 -6 -5 -11 -11 -11
-6 0 -8 15 -4 44 5 30 3 46 -6 51 -9 6 -10 1 -5 -18 7 -29 -11 -48 -25 -26
-15 24 -10 -34 6 -61 21 -37 17 -49 -6 -21 -16 19 -22 22 -29 12 -5 -10 -10
-4 -15 18 -7 31 -19 40 -30 21 -10 -17 -25 -1 -25 26 0 14 -4 22 -10 19 -5 -3
-10 -26 -10 -51 0 -56 -14 -57 -27 -1 -6 24 -11 33 -12 20 -1 -22 -21 -34 -21
-13 0 5 -6 9 -12 7 -9 -1 -12 10 -10 36 5 53 -15 46 -24 -8 -6 -45 -24 -72
-24 -38 0 15 -4 14 -20 -7 -27 -35 -35 -19 -12 24 20 37 19 80 -2 73 -6 -2
-17 -27 -25 -55 -8 -29 -18 -52 -23 -52 -5 0 -7 4 -4 9 10 16 -6 73 -23 79
-19 7 -41 28 -41 39 -1 14 -40 59 -40 46 0 -7 -6 -13 -13 -13 -8 0 -13 15 -13
40 -2 56 -44 101 -44 48 0 -13 -7 -32 -15 -42 -14 -19 -15 -17 -16 20 0 21 -3
32 -6 24 -2 -8 -7 -22 -10 -30 -4 -8 -7 -17 -8 -20 -1 -3 -9 -29 -18 -59 -20
-64 -20 -71 -7 -71 6 0 10 9 10 19 0 11 5 23 11 27 8 4 9 0 4 -15 -4 -12 -2
-21 4 -21 18 0 12 -48 -6 -60 -13 -8 -14 -13 -6 -16 10 -4 9 -10 -3 -21 -13
-14 -17 -14 -25 -2 -5 8 -7 22 -5 31 7 28 -10 30 -24 3 -7 -14 -17 -25 -22
-25 -11 0 -10 7 7 40 23 44 2 37 -30 -10 -15 -22 -30 -40 -33 -40 -2 0 -2 18
2 40 6 38 1 46 -26 41 -5 0 -8 8 -8 19 0 11 -3 20 -6 20 -9 0 -30 -24 -38 -45
-6 -14 -10 -16 -13 -7 -3 7 2 21 11 31 9 10 16 26 16 37 0 10 9 34 20 52 25
40 25 42 0 42 -16 0 -20 -7 -20 -30 0 -31 -25 -80 -41 -80 -5 0 -9 7 -9 15 0
19 -19 19 -26 0 -5 -11 -11 -12 -25 -4 -11 5 -17 15 -13 21 4 7 9 6 15 -3 6
-10 9 -6 9 14 0 15 -2 27 -4 27 -18 0 -36 -15 -36 -30 0 -25 -16 -33 -40 -20
-23 13 -27 30 -5 30 17 0 21 35 5 45 -18 11 -10 26 11 20 15 -5 19 -3 17 8 -2
9 2 15 7 14 6 -1 10 -13 10 -26 1 -35 23 -38 31 -4 13 52 54 73 54 28 0 -14
-4 -25 -9 -25 -5 0 -11 -9 -14 -20 -3 -11 -1 -20 4 -20 5 0 9 7 9 15 0 8 4 15
9 15 6 0 20 18 32 40 13 22 29 40 36 40 13 0 38 49 29 57 -7 8 -55 -31 -56
-44 0 -19 -18 -16 -22 4 -3 15 -4 15 -21 -1 -10 -10 -21 -16 -24 -13 -7 8 22
37 37 37 7 0 10 6 7 14 -3 8 4 25 16 39 28 30 74 96 56 80 -23 -22 -50 -15
-62 16 -6 18 -21 32 -34 36 -21 5 -22 7 -8 21 17 17 35 11 35 -13 0 -12 8 -15
40 -10 23 3 38 1 34 -4 -3 -5 4 -9 16 -9 12 0 18 -4 15 -10 -3 -6 1 -7 9 -4
29 11 17 -11 -39 -69 -59 -62 -62 -67 -41 -67 14 0 65 46 81 75 6 10 19 16 30
14 17 -4 18 -5 2 -21 -25 -24 -21 -29 19 -25 28 3 46 15 83 54 49 55 131 97
131 68 0 -19 -34 -37 -47 -24 -13 13 -46 -24 -49 -57 -3 -32 24 -44 42 -19 8
10 17 15 21 11 4 -4 3 -10 -3 -14 -5 -4 -11 -23 -12 -42 -2 -33 -2 -34 13 -16
8 11 15 22 15 26 0 3 14 14 30 23 23 14 30 15 30 4 0 -7 12 -17 27 -23 22 -7
31 -5 55 18 31 29 36 43 13 34 -9 -3 -15 0 -15 9 0 20 26 19 34 0 8 -21 23
-19 29 4 5 21 57 25 57 4 0 -6 9 -15 20 -18 13 -4 20 -15 20 -31 0 -17 8 -27
25 -34 15 -6 25 -17 25 -30 0 -11 5 -20 10 -20 6 0 10 12 10 26 0 14 4 23 10
19 6 -3 10 3 10 14 0 12 4 21 9 21 13 0 25 -61 13 -69 -5 -3 -6 -15 -2 -26 6
-17 7 -16 14 8 7 31 26 36 26 8 0 -22 43 -74 53 -64 12 11 8 42 -6 50 -7 4
-18 24 -23 43 -7 23 -16 35 -28 35 -18 0 -56 39 -56 56 0 18 18 8 24 -13 6
-22 7 -22 20 -5 12 15 12 24 4 43 -9 20 -8 28 5 41 15 16 18 15 39 -4 27 -24
63 -37 79 -27 8 4 7 9 -2 15 -9 6 -10 9 -2 9 6 0 18 -7 27 -15 8 -8 19 -15 24
-15 6 0 20 -12 31 -27 20 -28 20 -28 21 -5 0 13 4 21 9 18 5 -4 11 0 14 6 3
10 7 10 19 1 8 -7 17 -10 20 -7 3 3 14 -6 24 -19 11 -13 25 -22 33 -19 9 3 11
0 6 -8 -6 -10 -4 -12 8 -7 10 4 21 -3 32 -19 29 -45 28 -17 -1 35 -16 27 -26
52 -23 55 9 10 59 -18 65 -36 3 -10 15 -18 27 -18 16 0 18 3 9 12 -7 7 -12 21
-12 32 0 20 -36 66 -52 66 -4 0 -8 -6 -8 -13 0 -24 -67 -7 -107 27 -36 30 -73
37 -73 14 0 -5 -7 -8 -15 -4 -8 3 -15 1 -15 -5 0 -5 -12 -2 -26 8 -21 13 -30
14 -45 5 -10 -6 -21 -8 -24 -3 -3 5 -13 7 -23 4 -20 -5 -47 40 -35 59 4 7 9 3
14 -10 8 -22 29 -30 29 -12 0 7 7 7 21 0 12 -7 33 -8 52 -4 18 4 45 6 60 5 19
-1 26 2 21 10 -5 8 2 10 25 7 38 -6 41 9 4 23 -34 13 -45 29 -31 46 14 17 33
16 48 -2 17 -21 30 -9 30 27 0 25 -2 28 -15 18 -18 -15 -56 -4 -49 14 3 7 -2
21 -11 30 -15 15 -14 16 12 14 15 -1 33 -5 38 -8 16 -11 66 -4 75 9 4 7 10 9
13 4 3 -5 2 -15 -4 -23 -14 -24 -11 -29 27 -45 45 -18 44 -18 44 0 0 14 -11
19 -37 16 -17 -2 -16 9 2 32 9 13 20 17 34 12 14 -4 21 -2 21 6 0 7 2 10 5 7
3 -3 3 -13 -1 -22 -4 -11 -13 -15 -28 -10 -20 6 -20 5 2 -11 12 -9 22 -22 22
-29 0 -8 7 -19 16 -26 13 -11 16 -10 21 8 3 12 9 22 14 22 5 0 9 5 9 12 0 9
-3 9 -11 1 -6 -6 -18 -9 -25 -6 -21 8 -17 19 7 20 31 3 35 11 13 28 -18 14
-18 14 10 15 17 0 40 -9 53 -22 20 -19 26 -20 33 -8 7 12 13 11 33 -8 13 -12
26 -22 30 -22 12 0 8 48 -5 56 -8 5 -9 2 -5 -9 6 -16 5 -16 -18 -1 -14 9 -31
14 -38 11 -8 -3 -14 1 -14 8 0 10 7 10 30 3 23 -8 32 -7 45 6 22 21 33 20 39
-4z m-4863 -182 c9 -12 16 -30 16 -40 0 -22 21 -23 59 -4 24 13 30 13 59 -6
32 -20 53 -67 44 -100 -6 -25 -25 -22 -53 8 -55 59 -134 73 -163 29 -18 -28
-42 -31 -69 -10 -18 13 -18 14 2 24 11 6 28 11 38 11 41 0 56 47 28 84 -8 11
-15 26 -15 33 0 19 34 0 54 -29z m-980 -390 c13 -20 24 -28 36 -25 20 5 30
-11 30 -49 0 -15 -13 -37 -34 -57 -19 -18 -37 -42 -41 -54 -5 -20 -3 -23 20
-23 31 0 65 -16 65 -31 0 -6 -9 -8 -20 -4 -24 8 -60 -2 -60 -16 0 -6 21 -10
48 -8 26 1 60 -4 76 -10 26 -11 28 -15 23 -52 -3 -22 -8 -43 -11 -47 -4 -3
-28 -6 -55 -6 -37 0 -60 7 -90 27 -22 15 -44 27 -47 27 -4 0 -4 -19 -1 -42 3
-23 3 -55 0 -71 -5 -24 -9 -28 -31 -22 -15 4 -31 0 -41 -8 -9 -8 -25 -11 -38
-8 -21 6 -21 6 -3 29 11 13 27 22 37 20 10 -2 18 2 18 7 0 6 6 19 11 30 6 11
14 40 17 65 3 24 11 46 16 48 16 5 13 26 -6 61 -14 23 -23 29 -40 25 -32 -8
-40 18 -36 116 3 79 5 87 32 112 29 26 31 26 69 12 22 -9 46 -28 56 -46z
m-350 -423 c42 -18 69 -65 60 -106 l-6 -24 22 25 22 25 -3 -50 c-2 -28 3 -67
10 -88 7 -21 11 -41 8 -44 -9 -8 -80 65 -73 75 10 16 -18 42 -59 56 -39 14
-40 15 -43 66 -5 84 1 90 62 65z m89 -323 c35 -4 67 -35 77 -75 l8 -37 -62 0
c-66 0 -96 19 -109 68 -11 47 -2 51 86 44z"/>
<path d="M6158 1809 c-14 -14 -15 -19 -4 -19 8 0 16 -7 20 -15 3 -8 1 -15 -4
-15 -6 0 -10 3 -10 8 0 4 -14 7 -30 8 -41 2 -38 -14 13 -65 39 -40 45 -43 84
-38 34 4 49 0 75 -19 41 -31 55 -30 34 1 -19 28 -20 39 -5 29 6 -3 15 -1 19 6
5 9 19 1 47 -28 25 -26 52 -43 75 -47 20 -4 49 -20 65 -35 l29 -28 -1 23 c0
27 -32 56 -52 48 -7 -3 -24 9 -39 26 -14 17 -33 31 -41 31 -9 0 -30 11 -47 23
-38 29 -84 43 -65 21 6 -8 9 -17 6 -20 -3 -3 -15 8 -28 25 -27 37 -57 44 -38
9 l11 -21 -30 22 c-31 22 -45 48 -40 72 5 21 -25 19 -44 -2z"/>
<path d="M1529 4634 c-27 -20 -44 -25 -83 -23 -44 3 -51 0 -76 -31 -33 -40
-30 -54 11 -45 20 5 39 0 63 -14 49 -31 120 -26 78 5 -13 10 -15 17 -6 31 18
30 41 27 53 -7 9 -28 13 -31 44 -25 28 6 35 3 44 -18 11 -23 14 -24 47 -13 20
6 36 15 36 20 0 4 -7 6 -15 3 -8 -4 -17 -2 -19 2 -3 5 -33 19 -66 31 -44 16
-60 27 -60 41 0 17 8 19 60 19 77 0 82 21 9 38 -70 17 -80 15 -120 -14z"/>
<path d="M6772 4624 c-37 -12 -68 -27 -70 -32 -2 -6 -18 -16 -36 -22 -18 -6
-39 -22 -46 -35 -7 -14 -17 -25 -22 -25 -11 0 -48 -38 -48 -49 0 -5 -8 -11
-19 -14 -20 -5 -34 -58 -36 -138 -1 -25 -5 -50 -8 -56 -5 -7 13 -18 44 -28 29
-10 65 -30 82 -46 16 -16 37 -30 46 -31 9 0 21 -2 27 -2 6 -1 22 -9 36 -18 17
-11 37 -15 59 -11 19 3 46 5 62 5 30 -1 37 14 10 21 -10 3 -1 5 20 6 23 1 36
-3 32 -9 -10 -16 21 -12 35 4 6 8 24 16 38 18 15 2 26 9 24 16 -2 10 2 10 18
0 16 -11 22 -9 34 7 8 11 12 24 9 28 -3 5 7 20 22 33 33 28 36 29 29 9 -11
-27 13 -16 40 19 18 24 22 36 13 39 -7 2 0 16 21 38 18 18 35 44 38 56 3 12
15 25 25 28 10 4 19 10 19 15 0 5 11 21 25 36 14 15 25 30 25 33 0 4 -26 20
-57 36 -32 16 -70 38 -85 48 -16 10 -36 17 -45 16 -10 -1 -38 4 -63 11 -74 22
-221 19 -298 -6z m257 -74 c18 -5 40 -19 48 -30 9 -12 25 -20 43 -20 18 0 34
-8 44 -21 8 -12 19 -18 25 -14 15 9 13 -6 -4 -29 -8 -11 -15 -28 -15 -38 0
-11 -11 -30 -25 -44 -14 -14 -25 -31 -25 -38 0 -30 -99 -92 -219 -138 -145
-55 -265 17 -278 169 -9 96 27 147 104 151 24 2 33 -3 38 -18 7 -23 45 -27 45
-5 0 8 6 15 14 15 8 0 17 8 20 18 2 9 3 -8 0 -38 -4 -59 30 -180 53 -188 7 -2
23 19 38 47 l25 50 -36 68 c-20 37 -42 73 -50 79 -18 15 -6 25 21 18 13 -3 26
-1 29 5 9 14 60 14 105 1z"/>
<path d="M4367 4634 c-3 -3 8 -18 24 -32 28 -23 29 -26 12 -35 -10 -6 -26 -18
-36 -28 -17 -18 -47 -26 -47 -13 0 3 7 13 16 22 12 12 13 17 4 20 -7 3 -15 -1
-19 -7 -4 -6 -24 -12 -45 -13 -28 -1 -33 -4 -22 -10 23 -13 20 -25 -10 -32
-27 -7 -28 -29 -1 -34 11 -2 15 1 11 11 -7 19 40 36 86 30 66 -8 109 -43 54
-43 -31 0 -28 -23 4 -28 15 -2 22 2 22 12 0 9 7 16 16 16 14 0 14 3 4 15 -7 9
-10 18 -6 22 3 3 0 16 -9 29 -26 40 18 37 104 -7 56 -29 68 -33 47 -15 -16 14
-41 30 -55 38 -36 18 -43 32 -23 41 13 5 11 6 -6 3 -14 -3 -33 5 -51 20 -28
23 -61 31 -74 18z"/>
<path d="M2058 4604 c-27 -13 -48 -27 -48 -30 0 -3 11 -19 25 -36 29 -34 30
-43 10 -91 -14 -34 -36 -47 -83 -47 -22 0 -20 -3 20 -43 43 -43 43 -43 64 -25
22 19 23 19 65 -2 24 -12 54 -34 67 -48 l23 -27 17 25 c44 64 100 125 118 128
12 2 33 -11 54 -33 18 -19 40 -35 47 -35 19 0 16 27 -4 38 -18 11 -11 42 9 42
7 -1 26 -11 42 -24 26 -22 27 -25 13 -47 -8 -13 -15 -43 -15 -66 1 -24 -5 -49
-11 -57 -13 -16 -6 -56 9 -56 5 0 16 10 24 21 13 19 21 21 66 15 l51 -7 -6 33
c-3 18 -9 62 -13 98 -6 57 -10 66 -33 77 -21 10 -28 22 -33 59 -3 25 -3 51 1
57 4 7 0 8 -13 3 -44 -18 -52 -16 -104 28 l-54 46 -23 -22 c-27 -25 -29 -45
-7 -69 19 -21 11 -39 -19 -39 -15 0 -31 -14 -51 -46 -36 -57 -67 -78 -102 -70
-24 6 -26 10 -21 44 11 71 24 132 30 139 4 3 0 15 -10 25 -9 10 -21 28 -27 40
-15 30 -25 30 -78 2z"/>
<path d="M770 4558 c-14 -5 -41 -11 -60 -13 -19 -1 -43 -3 -52 -4 -33 -2 -18
-21 17 -21 25 0 38 -6 48 -22 54 -87 81 -128 87 -128 13 0 42 120 35 147 -13
52 -29 61 -75 41z"/>
<path d="M8760 4469 c11 -7 5 -8 -23 -3 -26 4 -44 2 -62 -10 -28 -18 -33 -36
-10 -36 8 0 15 -7 15 -15 0 -8 -4 -15 -9 -15 -20 0 -18 -39 3 -53 l21 -15 -30
-31 c-25 -27 -27 -33 -15 -41 23 -15 30 -12 61 21 17 19 35 29 44 25 20 -7 19
-26 0 -26 -9 0 -18 -7 -21 -15 -4 -8 -16 -15 -29 -15 -12 0 -30 -9 -40 -20
-10 -11 -23 -20 -29 -20 -15 -1 -76 -57 -76 -70 0 -5 14 -10 31 -10 31 0 31 0
23 -42 -11 -70 -11 -73 18 -76 21 -3 44 10 97 52 39 31 82 61 96 66 34 13 27
33 -14 41 -18 4 -37 11 -42 16 -14 14 2 53 22 53 11 0 19 7 19 15 0 11 8 13
32 8 18 -4 39 -12 46 -20 7 -7 17 -13 22 -13 17 0 -1 25 -33 45 -17 11 -37 30
-43 43 -6 13 -23 36 -38 51 -30 31 -32 41 -10 41 9 0 18 -9 21 -20 6 -21 18
-26 27 -11 3 5 -1 14 -9 21 -10 8 -11 18 -5 36 9 23 6 26 -25 40 -40 16 -57
18 -35 3z"/>
<path d="M8898 4393 c-2 -35 3 -57 17 -80 22 -35 35 -42 35 -18 0 8 9 23 20
32 13 12 18 24 14 40 -6 24 9 32 22 12 3 -6 19 -9 34 -5 39 7 63 -20 36 -40
-10 -7 -24 -15 -30 -17 -7 -3 -5 -11 6 -23 24 -28 49 -93 44 -118 -3 -19 0
-21 55 -21 33 0 59 1 59 3 0 1 -13 21 -30 44 -25 33 -30 51 -30 95 0 59 -13
93 -35 93 -8 0 -18 6 -22 14 -5 10 -32 16 -83 18 -41 2 -83 7 -92 12 -14 7
-17 1 -20 -41z"/>
<path d="M4475 4153 c-45 -7 -53 -21 -19 -33 21 -8 25 -13 15 -19 -11 -7 -11
-10 0 -14 12 -5 12 -7 0 -15 -17 -12 -51 6 -51 26 0 21 -94 12 -98 -11 -3 -13
4 -17 25 -18 15 -1 35 -3 43 -4 8 -1 23 -3 33 -4 28 -2 19 -34 -17 -61 -37
-27 -31 -40 18 -40 43 0 23 -13 -32 -21 -38 -5 -43 -8 -25 -14 17 -5 20 -11
14 -22 -10 -18 -96 -29 -106 -13 -3 5 1 10 10 10 10 0 15 7 13 18 -2 9 -12 16
-22 15 -11 0 -15 4 -12 13 3 9 -6 15 -29 20 -28 5 -35 11 -35 30 0 25 -15 33
-23 12 -4 -10 -6 -10 -6 0 -1 9 -6 10 -20 3 -24 -13 -35 -55 -21 -81 9 -16 8
-20 -5 -20 -30 0 -14 -18 23 -25 37 -7 47 -8 202 -25 47 -5 144 -18 215 -30
74 -11 169 -19 220 -18 50 1 107 -2 128 -6 49 -11 50 9 0 21 -20 4 -38 13 -40
19 -4 12 40 24 83 24 26 0 29 7 15 29 -8 12 -12 12 -24 2 -12 -9 -16 -9 -20 1
-4 8 -6 7 -6 -4 -1 -24 -18 -23 -32 3 -8 15 -18 20 -35 16 -17 -3 -28 1 -35
14 -12 24 1 25 41 4 17 -9 30 -11 30 -5 0 5 -4 10 -10 10 -5 0 -10 5 -10 10 0
6 11 8 26 4 20 -5 25 -3 22 7 -7 20 -75 23 -103 5 -37 -24 -84 -20 -107 9 -11
14 -26 25 -34 25 -17 0 -19 -16 -1 -24 6 -3 0 -3 -16 0 -15 4 -42 14 -61 23
-27 14 -32 21 -24 34 12 22 -51 95 -64 75 -6 -10 -10 -10 -18 2 -17 26 -11 32
28 25 76 -12 102 -14 102 -5 0 16 -92 31 -145 23z"/>
<path d="M8901 4012 c-15 -28 -108 -99 -143 -107 -16 -4 -39 -1 -61 10 -40 19
-77 8 -77 -23 0 -22 67 -77 105 -86 53 -12 84 -28 98 -50 8 -11 30 -28 48 -38
70 -34 148 -68 158 -68 15 0 41 -42 41 -66 0 -14 -8 -24 -22 -28 -36 -9 -68
-7 -68 5 0 17 -100 129 -115 129 -7 0 -23 8 -36 19 -50 39 -147 83 -168 76
-26 -8 -27 -25 -2 -25 32 0 34 -19 4 -25 -43 -9 -56 -19 -64 -48 -5 -18 -3
-30 5 -34 7 -5 16 -25 19 -47 3 -21 14 -47 23 -57 16 -18 16 -19 -3 -19 -10 0
-28 7 -39 15 -28 21 -61 19 -69 -6 -4 -11 -4 -23 -1 -26 3 -4 2 -11 -4 -17 -5
-7 -5 -27 0 -50 5 -21 6 -45 3 -52 -3 -8 0 -14 6 -14 6 0 11 -8 11 -17 0 -13
-3 -14 -12 -5 -21 21 -45 14 -45 -13 0 -14 3 -28 8 -31 14 -8 11 -24 -5 -24
-8 0 -24 -8 -37 -18 l-22 -19 39 -26 c21 -15 44 -27 51 -27 7 0 13 -5 13 -11
0 -5 -4 -8 -9 -5 -14 9 -41 -4 -41 -20 0 -8 4 -14 10 -14 5 0 7 -6 5 -12 -3
-7 -1 -18 3 -25 10 -16 52 -5 52 13 0 8 5 14 11 14 6 0 9 -9 6 -20 -3 -11 -1
-23 4 -26 19 -11 8 -20 -26 -21 -33 -1 -65 -17 -65 -32 0 -4 6 -15 13 -25 13
-17 15 -17 48 3 40 25 74 29 43 6 -17 -13 -17 -14 -1 -9 24 9 104 -33 110 -57
3 -13 14 -19 31 -19 31 0 33 -11 6 -35 -20 -18 -28 -41 -11 -30 5 3 12 1 16
-5 12 -19 25 -10 25 19 0 15 11 45 25 66 45 66 44 86 -12 133 -26 23 -73 58
-103 79 -57 40 -79 76 -41 66 17 -4 21 -1 21 22 0 26 2 27 38 20 39 -7 62 -21
62 -37 0 -6 -8 -7 -17 -3 -10 4 -23 9 -29 12 -14 5 -23 -47 -13 -73 3 -11 33
-33 65 -50 53 -29 64 -31 109 -24 66 10 76 2 29 -24 -44 -25 -90 -101 -74
-122 14 -15 3 -61 -22 -97 -11 -15 -17 -34 -14 -42 9 -25 40 -17 58 15 9 17
29 35 43 42 14 6 25 16 25 22 0 7 15 10 41 8 39 -4 41 -6 35 -33 -3 -18 -1
-29 6 -29 17 0 37 -32 38 -60 1 -23 2 -24 14 -7 21 27 28 20 21 -22 -6 -36 -5
-39 24 -49 17 -6 33 -18 36 -27 16 -50 14 -48 38 -33 15 9 35 12 60 8 43 -8
47 1 12 28 -14 11 -25 22 -25 24 0 3 18 13 40 23 59 27 52 52 -13 45 -15 -1
-18 4 -16 27 2 15 -5 43 -14 62 -9 19 -17 39 -17 44 0 19 73 117 82 111 15 -9
59 -85 61 -103 0 -10 10 -18 24 -19 17 -1 24 5 29 23 8 33 -1 55 -23 55 -20 1
-63 33 -63 48 0 5 -6 12 -14 15 -8 3 -17 24 -21 46 -7 45 15 97 47 107 10 3
18 12 18 20 0 25 28 15 35 -13 4 -19 2 -31 -9 -38 -13 -10 -12 -13 4 -22 25
-16 30 -7 30 48 0 38 -4 51 -21 59 -53 29 -79 149 -44 210 8 14 14 28 15 33 0
14 -27 7 -45 -13 -37 -41 -126 -36 -138 9 -6 25 8 28 17 5 4 -9 9 -14 12 -11
10 9 -18 51 -54 81 -33 29 -34 31 -28 84 l6 55 -35 -6 c-47 -8 -82 9 -101 48
-11 24 -12 39 -5 58 7 18 7 28 0 33 -6 3 -8 17 -5 30 5 17 -1 36 -19 62 -14
20 -25 46 -26 57 0 11 -4 29 -8 40 -8 19 -8 19 -20 -3z"/>
<path d="M9022 3968 c6 -18 11 -48 12 -67 1 -19 7 -36 14 -39 10 -3 9 -8 -3
-22 -24 -26 -11 -54 33 -70 46 -17 53 -18 73 -9 8 4 21 4 29 -1 9 -6 18 -4 23
3 6 7 6 4 2 -8 -4 -11 -9 -38 -13 -59 -5 -36 -4 -39 17 -33 18 4 23 0 28 -24
3 -16 12 -29 20 -29 10 0 12 -6 8 -20 -3 -11 -2 -20 3 -20 16 0 31 24 37 60 8
48 15 50 15 6 0 -26 -8 -48 -25 -68 -37 -44 -33 -52 24 -44 55 7 68 -2 50 -35
-14 -28 -20 -89 -8 -89 5 0 15 -15 23 -32 13 -31 14 -25 15 90 1 80 -3 121 -9
117 -5 -3 -10 -1 -10 4 0 6 5 11 10 11 6 0 10 48 10 124 l0 124 -53 26 c-57
28 -90 32 -130 17 -20 -8 -29 -5 -47 14 -15 16 -18 25 -10 30 18 11 -8 25 -46
25 -16 0 -45 11 -64 25 -19 14 -35 25 -36 25 -2 0 2 -15 8 -32z"/>
<path d="M3463 3820 c-26 -25 -60 -45 -88 -52 -35 -10 -45 -17 -45 -33 0 -12
5 -26 12 -33 17 -17 46 -15 44 4 -1 11 16 22 54 35 67 23 80 23 80 4 0 -8 -7
-15 -15 -15 -20 0 -19 -26 1 -34 48 -18 104 4 104 42 0 38 -22 92 -43 107 -34
24 -59 18 -104 -25z"/>
<path d="M1693 3829 c-19 -19 -24 -20 -38 -9 -14 12 -18 11 -26 -1 -5 -8 -9
-17 -9 -21 0 -14 -88 -58 -116 -58 -40 0 -62 -44 -37 -73 10 -10 25 -23 34
-27 13 -8 15 -5 11 15 -6 33 22 43 57 22 25 -15 28 -14 38 2 8 13 8 22 1 29
-15 15 -3 42 18 42 10 0 32 -12 51 -26 35 -26 89 -31 87 -6 -1 6 -2 32 -2 57
-1 26 -7 45 -13 45 -7 0 -17 7 -23 15 -10 14 -14 13 -33 -6z"/>
<path d="M2570 3785 c-9 -10 -9 -15 -1 -15 6 0 11 -8 11 -17 0 -10 12 -31 26
-47 22 -25 29 -28 45 -18 16 10 21 10 26 -3 3 -9 1 -21 -5 -27 -8 -8 -8 -17
-1 -30 14 -26 23 -23 36 12 8 20 18 30 33 30 32 0 70 44 70 81 0 30 -2 31 -32
27 -18 -3 -55 1 -83 8 -66 18 -110 18 -125 -1z"/>
<path d="M2841 3686 c-18 -22 -3 -84 30 -120 25 -28 30 -30 49 -18 15 9 25 10
34 3 8 -7 19 -6 36 2 33 17 35 33 6 41 -13 3 -44 28 -69 56 -47 52 -66 60 -86
36z"/>
<path d="M3244 3675 c-16 -17 -18 -27 -11 -46 5 -13 10 -57 10 -96 1 -40 3
-73 4 -73 1 0 19 11 39 25 20 14 43 25 50 25 12 0 25 31 38 91 6 29 -6 39 -48
39 -27 0 -46 18 -46 42 0 23 -10 21 -36 -7z"/>
<path d="M2070 3507 c0 -31 -8 -61 -25 -91 -14 -25 -25 -47 -25 -49 0 -2 17
-7 37 -10 30 -5 42 -2 60 15 17 16 45 25 103 32 l79 11 -30 48 c-29 47 -31 48
-49 32 -26 -23 -76 -11 -117 28 l-33 31 0 -47z"/>
<path d="M8295 2950 c-3 -5 -18 -10 -33 -10 -25 0 -25 -1 -6 -15 18 -14 18
-16 2 -28 -9 -7 -20 -25 -23 -40 -5 -20 -13 -27 -32 -27 -25 0 -25 -1 -9 -25
18 -27 10 -58 -19 -68 -8 -4 -12 -13 -9 -20 3 -8 -2 -17 -10 -20 -19 -8 -13
-49 17 -120 15 -37 29 -52 60 -67 50 -24 47 -24 47 0 0 11 7 20 15 20 8 0 15
7 15 15 0 8 5 15 11 15 6 0 9 -7 5 -15 -10 -27 9 -60 35 -60 15 0 28 -8 34
-22 6 -14 19 -23 31 -23 24 0 46 -22 63 -65 6 -17 21 -36 32 -44 19 -11 25
-10 48 12 14 14 43 32 64 42 37 17 56 55 20 40 -45 -20 -81 -16 -141 14 -100
50 -137 121 -80 152 15 8 18 17 14 35 -8 29 17 33 45 8 12 -11 25 -13 41 -8
13 4 30 7 37 5 13 -2 13 0 2 13 -8 9 -16 14 -19 11 -3 -3 -15 14 -27 37 -12
24 -28 44 -37 46 -8 2 -37 -23 -63 -54 -42 -48 -111 -94 -144 -94 -15 0 -30
76 -25 130 6 66 41 118 85 127 36 7 47 23 25 35 -9 5 -23 25 -31 44 -14 34
-28 43 -40 24z"/>
<path d="M7889 2514 c-10 -12 -10 -20 -1 -35 10 -16 10 -21 -3 -25 -8 -4 -22
-1 -30 6 -9 7 -19 10 -23 6 -4 -4 3 -16 16 -26 13 -11 23 -21 22 -24 -1 -23 2
-27 20 -21 13 4 20 2 20 -7 0 -9 12 -12 43 -10 30 3 47 -1 56 -12 26 -31 38
-19 35 33 -3 63 -4 65 -67 101 -60 34 -70 36 -88 14z"/>
<path d="M8230 2320 c0 -5 7 -10 15 -10 9 0 21 -11 27 -25 16 -36 -2 -50 -62
-50 -56 0 -72 -11 -64 -43 7 -26 15 -27 55 -6 32 16 57 10 26 -7 -15 -9 -16
-12 -1 -34 9 -13 15 -28 14 -32 0 -4 9 -10 21 -11 17 -3 19 -6 8 -12 -10 -7
-11 -12 -3 -20 7 -7 26 2 62 28 28 20 52 40 52 43 0 3 -10 11 -23 18 -31 16
-57 62 -57 98 0 36 -25 73 -51 73 -10 0 -19 -4 -19 -10z"/>
<path d="M7866 2055 c-21 -31 -21 -30 14 -30 19 -1 30 4 30 13 0 12 4 11 25
-2 13 -9 33 -16 43 -16 19 0 103 -83 115 -113 4 -10 17 -17 32 -17 22 0 25 4
25 39 0 37 -2 40 -26 38 -21 -2 -31 5 -46 33 -35 64 -62 80 -132 80 -57 0 -66
-3 -80 -25z"/>
<path d="M3560 2024 c0 -3 7 -13 16 -22 15 -14 15 -16 -6 -24 -30 -11 -16 -28
23 -27 87 1 154 -9 184 -27 25 -16 46 -20 95 -18 35 2 69 3 76 4 6 0 12 6 12
14 0 15 -97 66 -125 66 -9 0 -28 6 -43 14 -22 11 -38 12 -76 4 -33 -7 -55 -7
-70 0 -25 13 -86 24 -86 16z"/>
<path d="M8430 1641 c0 -56 -13 -93 -47 -129 -29 -31 -33 -39 -24 -59 6 -13
19 -23 30 -23 10 0 34 -7 54 -15 41 -17 49 -12 36 23 -13 35 -4 72 27 106 l26
27 -25 23 c-13 12 -32 35 -42 49 -22 35 -35 34 -35 -2z"/>
<path d="M8845 1545 c-31 -93 -75 -165 -103 -165 -7 0 -12 -5 -10 -11 3 -10
35 -28 121 -70 16 -8 36 -27 45 -42 15 -24 15 -29 2 -37 -8 -5 -10 -10 -4 -10
27 0 36 28 19 60 -15 28 -15 34 -1 55 20 30 76 134 76 140 0 3 -10 5 -21 5
-31 0 -87 37 -103 68 -14 25 -15 26 -21 7z"/>
<path d="M2190 1482 c0 -14 36 -43 43 -35 4 3 7 -3 7 -15 0 -30 -12 -28 -43 8
-29 32 -52 38 -60 18 -4 -10 -7 -10 -14 -1 -5 7 -22 10 -38 8 -17 -2 -34 -4
-39 -4 -5 -1 4 -11 19 -23 19 -14 30 -18 32 -11 3 7 11 9 18 6 8 -3 22 3 32
13 17 17 18 16 23 -12 3 -16 10 -27 15 -25 6 3 11 -3 13 -12 4 -22 -6 -21 -46
3 -40 25 -42 25 -42 0 0 -21 -15 -27 -25 -10 -3 6 -22 10 -41 10 -19 0 -34 -4
-34 -10 0 -5 9 -10 20 -10 10 0 23 -7 27 -15 5 -8 35 -42 67 -75 32 -33 54
-60 47 -60 -6 0 -11 5 -11 12 0 6 -11 1 -25 -12 -14 -13 -25 -29 -25 -37 0 -7
-4 -13 -10 -13 -15 0 -12 16 5 34 17 16 20 56 5 56 -5 0 -10 7 -10 15 0 17
-47 51 -57 41 -4 -3 3 -15 15 -26 27 -26 27 -30 2 -23 -22 6 -26 -7 -8 -25 19
-19 -18 -15 -48 4 -31 21 -41 12 -24 -20 16 -31 7 -56 -20 -56 -11 0 -19 -6
-17 -12 1 -8 -9 -13 -28 -13 -32 0 -46 -22 -37 -57 6 -26 22 -22 19 5 -1 14 3
22 13 22 8 0 14 -5 13 -12 -1 -6 15 -30 36 -54 27 -31 42 -41 55 -36 13 5 16
14 12 32 -6 23 -3 25 24 25 16 0 30 -4 30 -10 0 -5 -4 -10 -10 -10 -5 0 -10
-9 -10 -20 0 -12 -5 -17 -14 -14 -7 3 -16 -2 -19 -10 -4 -9 -1 -16 4 -16 6 0
9 -9 6 -20 -3 -11 -1 -23 4 -26 5 -3 7 -17 3 -32 l-5 -27 23 28 c29 34 34 34
51 0 l14 -27 8 23 c5 18 9 20 16 10 6 -10 11 -11 20 -2 18 18 -27 39 -49 21
-14 -11 -15 -11 -9 5 4 10 7 23 7 29 0 6 13 7 31 3 24 -6 30 -4 26 6 -2 8 -10
13 -16 11 -6 -1 -11 3 -11 9 0 11 16 9 69 -7 21 -6 23 -5 17 12 -14 33 -12 48
8 52 15 3 18 0 13 -19 -3 -13 -1 -29 5 -36 7 -9 8 -21 1 -36 -5 -12 -6 -35 -2
-52 6 -28 7 -29 14 -7 7 22 16 27 27 17 3 -3 1 -26 -3 -51 -6 -29 -5 -53 2
-65 13 -25 29 -16 22 12 -4 15 1 27 18 40 22 17 23 19 4 19 -15 0 -17 2 -6 9
17 11 3 38 -30 54 -32 16 -39 77 -12 104 17 17 19 17 62 -24 27 -26 40 -46 35
-54 -4 -8 -3 -10 5 -5 7 5 26 -7 47 -28 41 -41 48 -44 39 -16 -7 22 -62 80
-76 80 -5 0 -9 13 -9 29 0 18 -6 31 -17 35 -14 6 -14 9 5 22 12 8 20 19 17 24
-12 20 48 20 80 0 24 -15 39 -18 50 -12 15 8 15 10 1 21 -9 8 -16 20 -16 27 0
15 -36 19 -44 5 -9 -14 -46 -1 -46 16 0 10 -6 13 -17 8 -10 -4 -24 -9 -30 -12
-7 -3 -13 0 -13 5 0 20 104 30 115 12 4 -6 11 -8 16 -4 18 11 -39 44 -75 44
-23 0 -42 7 -56 22 -18 19 -18 23 -5 38 8 9 15 22 15 28 0 7 6 12 13 13 6 1 1
4 -13 8 -16 4 -26 15 -28 30 -2 12 -11 25 -20 28 -69 23 -87 38 -57 49 13 5
13 8 -1 21 -11 11 -18 12 -28 4 -11 -9 -18 -8 -29 4 -17 17 -27 19 -27 7z"/>
<path d="M7744 1375 c-7 -19 -14 -40 -14 -46 0 -6 -10 1 -22 17 -27 36 -36 42
-67 51 -50 13 -63 -54 -15 -76 14 -6 27 -18 31 -26 3 -9 19 -29 36 -46 16 -16
27 -23 24 -15 -7 17 16 28 38 19 23 -8 14 -37 -12 -41 -13 -2 -24 -13 -28 -29
-8 -35 1 -40 24 -12 20 24 27 17 21 -20 -1 -13 1 -13 14 -2 9 8 14 16 12 19
-8 7 13 42 24 42 17 0 11 -57 -6 -64 -9 -4 -15 -9 -12 -12 3 -2 21 4 39 14 19
11 48 19 64 18 17 -1 33 2 36 7 3 4 14 -7 23 -25 11 -22 16 -26 15 -13 -4 51
3 59 17 20 8 -22 21 -47 29 -55 13 -13 15 -10 15 18 0 30 2 31 20 20 11 -7 20
-20 20 -28 1 -12 3 -11 11 3 14 24 27 21 40 -7 14 -29 39 -24 39 9 0 12 -9 43
-20 67 -16 37 -26 47 -51 52 -58 11 -88 7 -99 -15 -9 -16 -14 -18 -26 -9 -7 7
-21 9 -30 6 -13 -5 -15 -1 -10 20 7 27 7 27 -18 11 -36 -24 -56 -12 -56 33 0
52 -8 70 -36 81 -14 5 -24 17 -24 29 0 33 -30 23 -46 -15z"/>
<path d="M8958 1261 l-23 -19 28 -29 c15 -16 27 -32 27 -37 0 -4 -16 -14 -36
-22 -30 -13 -34 -17 -23 -30 9 -11 22 -14 42 -10 24 5 28 3 23 -10 -7 -17 9
-44 25 -44 5 0 14 11 19 25 9 24 23 30 65 25 16 -1 13 5 -17 37 -21 21 -38 48
-38 58 0 25 -8 36 -42 57 -25 17 -28 16 -50 -1z"/>
<path d="M8575 1188 c0 -44 -6 -71 -19 -90 -18 -28 -18 -28 13 -63 36 -41 36
-43 16 -92 -14 -33 -14 -37 2 -49 32 -24 45 -18 30 14 -21 44 -11 72 25 72 29
0 87 -29 117 -58 11 -11 11 -15 -5 -27 -20 -15 -18 -16 31 -21 17 -2 41 -5 55
-6 49 -6 68 -34 28 -40 -16 -2 -31 -19 -50 -58 -30 -61 -34 -86 -16 -92 9 -3
8 -10 -5 -23 -15 -14 -16 -20 -5 -26 15 -10 35 11 50 54 6 15 15 26 21 24 22
-7 18 -28 -13 -57 -43 -40 -38 -71 12 -82 38 -8 111 -48 123 -68 13 -21 34
-10 32 17 -2 31 24 43 50 22 12 -10 14 -25 10 -61 -6 -46 -5 -49 24 -64 42
-21 59 -12 59 33 1 21 9 63 20 93 11 32 15 59 10 64 -16 16 -110 25 -176 17
-72 -8 -77 -2 -49 53 19 37 19 48 -4 77 -10 13 -21 42 -24 64 -4 26 -15 48
-32 63 -22 18 -26 29 -23 57 2 19 0 35 -5 35 -4 0 7 17 27 37 32 35 34 38 20
62 -7 15 -29 44 -48 66 l-35 40 -23 -22 c-21 -19 -29 -20 -81 -13 -53 8 -137
50 -137 69 0 4 -6 15 -12 24 -11 15 -13 7 -13 -45z"/>
<path d="M7500 1123 c-14 -3 -29 -9 -34 -14 -6 -5 -20 -9 -33 -9 -13 0 -23 -5
-23 -11 0 -6 7 -9 15 -5 11 4 15 -1 15 -19 0 -13 9 -40 19 -58 10 -19 21 -43
24 -53 4 -16 5 -17 6 -1 2 28 21 19 21 -10 l0 -27 20 22 c12 12 27 22 34 22 8
0 16 9 19 21 9 33 27 12 27 -31 0 -29 -8 -48 -35 -80 -20 -24 -34 -44 -32 -46
2 -2 28 1 58 6 48 8 60 6 107 -16 60 -29 102 -82 102 -131 0 -37 9 -63 21 -63
5 0 9 13 9 28 0 35 27 62 63 62 14 0 35 9 45 20 22 24 43 19 57 -12 12 -26 42
-39 32 -15 -3 9 -2 19 3 22 6 4 10 -3 10 -14 0 -29 18 -26 30 3 12 32 30 42
30 17 0 -28 17 -36 25 -11 8 24 62 28 71 6 5 -13 27 -15 83 -7 2 1 -8 12 -24
27 -21 19 -26 32 -23 54 3 23 2 27 -8 19 -9 -8 -17 -4 -29 15 -10 14 -24 26
-31 26 -8 0 -14 4 -14 10 0 6 -9 6 -22 1 -27 -9 -91 -6 -109 5 -7 4 -45 7 -84
6 -61 -2 -75 1 -112 25 -71 46 -97 124 -43 131 35 5 55 23 38 33 -7 5 -20 6
-29 4 -13 -4 -15 0 -11 21 3 19 1 25 -7 20 -6 -4 -11 -18 -11 -32 0 -29 -15
-31 -30 -4 -11 20 -11 20 -39 -1 -25 -19 -33 -20 -63 -10 -19 6 -50 23 -68 36
-19 14 -36 24 -39 24 -3 -1 -17 -4 -31 -6z"/>
<path d="M7188 1040 c-9 -6 -22 -25 -28 -44 -6 -19 -17 -37 -25 -40 -8 -3 -15
-14 -15 -24 0 -10 -5 -23 -12 -30 -9 -9 -9 -12 -1 -12 7 0 15 5 18 10 11 18
23 11 18 -10 -3 -11 -9 -20 -14 -20 -5 0 -9 -6 -9 -14 0 -7 -9 -25 -20 -39
-11 -14 -20 -35 -20 -47 0 -11 -7 -34 -15 -50 -14 -27 -13 -32 6 -65 19 -31
21 -46 16 -103 -4 -37 -11 -68 -17 -70 -17 -6 -11 -26 11 -41 14 -8 18 -16 11
-20 -22 -13 -16 -31 18 -49 42 -23 58 -67 27 -76 -11 -3 -28 -1 -38 5 -27 14
-49 11 -49 -7 0 -8 4 -13 9 -10 5 3 14 -1 21 -9 7 -8 8 -15 3 -15 -5 0 -8 -14
-7 -30 1 -17 -4 -33 -11 -38 -21 -12 -22 -35 -5 -88 10 -28 16 -62 13 -76 l-5
-25 91 -2 c50 0 91 3 91 7 0 4 -14 16 -30 26 -17 9 -28 22 -25 27 11 18 33 9
64 -26 31 -35 76 -49 65 -20 -4 8 7 28 25 46 26 26 37 30 62 25 51 -10 100
-38 112 -63 10 -23 11 -23 193 -23 168 0 186 2 218 21 38 22 47 39 21 39 -19
0 -22 15 -9 64 5 21 4 27 -5 22 -17 -11 -14 36 5 62 12 17 24 22 47 20 29 -3
32 -6 32 -37 0 -19 6 -36 13 -38 6 -3 12 2 12 9 0 8 7 23 15 34 13 16 16 17
24 4 6 -8 14 -15 19 -15 14 0 64 -59 53 -63 -19 -6 -12 -29 13 -46 14 -8 27
-24 31 -35 6 -20 57 -41 98 -41 43 0 -6 77 -61 94 -26 9 -18 52 18 96 27 33
30 34 46 18 17 -17 20 -16 51 18 45 49 43 74 -3 39 -26 -20 -34 -19 -34 6 0
17 -5 20 -21 16 -30 -8 -70 9 -63 26 7 18 48 37 79 37 28 0 33 15 10 24 -8 3
-15 12 -15 20 0 14 -50 56 -67 56 -4 0 0 -5 10 -11 28 -16 22 -64 -12 -88
l-29 -21 -7 30 c-4 16 -12 30 -20 30 -16 0 -27 40 -15 55 6 7 5 25 -2 48 -6
20 -8 40 -5 43 9 9 37 -15 37 -32 0 -14 12 -19 22 -8 7 6 -19 60 -39 81 -7 8
-14 9 -18 3 -10 -17 -23 -11 -29 13 -3 15 -18 27 -41 36 -42 15 -43 15 -51
-26 -5 -26 -3 -32 17 -38 17 -6 27 -2 40 14 20 25 29 27 29 6 0 -8 -14 -22
-32 -31 -31 -16 -32 -17 -12 -33 31 -26 45 -67 32 -95 -14 -32 -81 -60 -108
-46 -34 18 -40 11 -24 -27 33 -78 -33 -115 -94 -53 -16 16 -33 26 -36 22 -4
-4 -28 -14 -54 -23 -26 -9 -46 -19 -44 -22 1 -4 -4 -20 -12 -35 -12 -22 -12
-36 -3 -70 6 -23 14 -42 18 -42 13 0 19 68 9 96 l-10 29 20 -24 c28 -33 25
-79 -9 -133 -39 -62 -75 -81 -118 -63 -24 10 -35 24 -44 53 -11 39 -12 39 -38
26 -48 -25 -111 -11 -111 24 0 15 8 18 50 16 27 -2 53 -5 58 -8 15 -9 29 9 36
48 7 37 6 39 -10 25 -11 -9 -40 -14 -87 -13 -67 0 -71 2 -97 34 -24 30 -31 33
-51 24 -38 -16 -85 -9 -134 22 -52 33 -65 63 -41 99 21 32 21 93 -1 117 -15
17 -15 18 15 7 25 -9 36 -8 54 5 39 28 52 19 23 -15 -14 -17 -24 -36 -22 -42
2 -6 32 -11 68 -11 35 -1 73 -5 84 -11 18 -8 17 -5 -6 26 -29 39 -42 71 -60
152 -7 32 -16 60 -20 63 -5 3 -22 -5 -38 -17 -43 -31 -93 -20 -142 34 -22 23
-39 49 -39 58 0 25 16 63 34 81 8 9 16 33 18 54 1 22 6 42 11 45 6 4 13 24 16
45 5 30 11 40 28 42 35 5 48 -31 27 -76 -9 -20 -23 -41 -30 -45 -21 -12 -17
-30 4 -22 9 4 33 8 52 9 27 1 38 7 48 29 18 36 33 35 22 -3 -8 -26 -5 -31 24
-50 45 -27 49 -26 27 15 -12 24 -17 49 -15 80 4 38 1 45 -13 43 -44 -3 -73 4
-107 27 -20 14 -38 25 -39 25 -1 0 -10 -5 -19 -10z"/>
<path d="M8645 860 c4 -14 14 -30 22 -37 23 -18 8 -46 -19 -37 -31 9 -31 9
-19 32 8 16 7 21 -5 26 -9 3 -20 4 -25 1 -5 -3 -18 -1 -29 5 -27 14 -63 3 -56
-17 4 -10 1 -13 -13 -8 -12 3 -21 0 -25 -10 -3 -9 -2 -13 4 -10 6 3 10 1 10
-6 0 -8 14 -10 44 -7 24 3 50 2 58 -3 10 -7 9 -9 -4 -9 -11 0 -18 -8 -18 -20
0 -12 -9 -39 -21 -61 -11 -23 -19 -42 -17 -43 37 -23 108 -83 108 -91 0 -12
-29 -57 -44 -67 -6 -4 -27 -8 -46 -8 -55 0 -65 -11 -49 -54 7 -20 16 -36 20
-36 12 0 17 24 8 42 -9 16 6 36 18 24 3 -3 23 4 44 14 21 11 45 20 53 20 24 0
58 77 50 115 -5 26 -2 36 16 48 18 13 21 21 16 44 -4 15 -10 43 -13 62 -6 36
-7 38 -48 86 -25 29 -26 29 -20 5z"/>
<path d="M8910 238 c0 -18 -5 -50 -11 -72 -10 -36 -13 -38 -41 -32 -26 5 -35
0 -69 -35 -39 -41 -47 -69 -11 -36 27 25 43 21 77 -19 l32 -37 136 -4 137 -5
-2 38 c-2 22 1 49 5 60 7 19 3 22 -32 28 -58 9 -85 24 -105 57 -13 23 -22 28
-38 23 -13 -4 -24 0 -33 13 -23 33 -20 38 25 44 l45 6 -57 1 -58 2 0 -32z"/>
</g>
</svg>
